<?xml version="1.0" encoding="UTF-8"?>
<svg width="80px" height="89px" viewBox="0 0 80 89" version="1.1" xmlns="http://www.w3.org/2000/svg" xmlns:xlink="http://www.w3.org/1999/xlink">
    <title>人@2x</title>
    <g id="人" stroke="none" stroke-width="1" fill="none" fill-rule="evenodd">
        <g id="常规点" transform="translate(1.052632, 1.047059)" fill-rule="nonzero">
            <g id="路径">
                <path d="M78,38.8722779 C78,51.8300805 71.5926171,63.3063748 61.8426313,70.3407428 C55.4355884,75.0607132 38.9997166,87 38.9997166,87 C38.9997166,87 22.3784029,74.9680695 15.8784123,70.2479862 C6.22148754,63.1214264 0,51.7374368 0,38.8722779 C0,17.3998418 17.4569361,0 38.9997166,0 C60.5426105,0 78,17.3998418 78,38.8722779 L78,38.8722779 Z" fill="#13C2C2"></path>
                <path d="M6,38.9998322 C6,57.2251532 20.7745111,72 38.9997203,72 C57.2251532,72 72,57.2251532 72,38.9998322 C72,20.7745111 57.2251532,6 38.9997203,6 C20.7745111,6 6,20.7745111 6,38.9998322 L6,38.9998322 Z" fill="#FFFFFF"></path>
            </g>
            <g id="陌生人,男人,男士" transform="translate(21.947368, 20.952941)" fill="#13C2C2">
                <path d="M29.8807083,26.0376916 C27.458424,25.2748755 25.0924718,24.5120594 23.550378,23.7492432 C22.4730248,23.2149204 21.8005592,22.6805976 21.8005592,22.1462748 L21.8005592,20.863197 C22.1561562,20.5784591 22.5011909,20.2409921 22.825101,19.8472806 C22.91312,19.7418221 22.9976183,19.6328484 23.0821166,19.5168441 C23.4588381,19.0000976 23.8390805,18.2900108 24.1700321,17.5834391 C24.5397121,16.7995313 24.85306,16.0261693 25.0361396,15.548091 C25.2121777,15.3371741 25.370612,15.1297725 25.5149632,14.9258861 C26.3493839,13.7306904 26.6416071,12.5882238 26.3845915,11.5230934 C26.2331987,10.893858 25.8916848,10.3419588 25.4234234,9.9412167 C25.6100238,8.42964557 25.5994616,6.71770336 25.0502226,5.21316278 C24.7474371,4.38355628 24.3460702,3.64534713 23.8566843,3.00908113 C23.0856373,2.00722584 22.0822201,1.24440971 20.8605157,0.731178598 C19.2902558,0.0703056445 17.8009734,0 17.2306099,0 L16.8362846,0 C16.2694419,0 14.7801595,0.0703056445 13.2063788,0.731178598 C11.8966553,1.27956255 10.8404266,2.1161996 10.0482552,3.22702861 C9.62928447,3.81408064 9.28424978,4.47846891 9.0131511,5.21667805 C8.46391219,6.72121863 8.45334993,8.4331608 8.63995031,9.94473197 C8.17168895,10.3489894 7.83017502,10.8973733 7.67878225,11.5266087 C7.42880813,12.5706474 7.7034276,13.688507 8.50264059,14.8626111 C8.65755411,15.0911044 8.83359223,15.3195977 9.02723415,15.5516063 C9.21031377,16.0331999 9.5236616,16.8065619 9.89334164,17.593985 C10.2242933,18.2970413 10.6010148,19.0036129 10.9777364,19.5203593 C11.0587139,19.6328484 11.1432122,19.7418221 11.2277105,19.8437652 C11.5340168,20.2163851 11.8614477,20.539791 12.1959201,20.813983 L12.1959201,22.1462748 C12.1959201,22.6876282 11.5058507,23.2289815 10.4003314,23.7703349 C8.85823758,24.5261205 6.50988923,25.2854213 4.11225018,26.0376916 C0,27.3313153 0,34.1790841 0,34.1790841 C0,34.1790841 5.00652378,36 17.0756964,36 C29.144869,36 34,34.1790841 34,34.1790841 C34,34.1790841 33.9964792,27.3313153 29.8807083,26.0376916 Z M10.9918194,14.3739869 C9.24200063,12.4616737 9.90742469,11.6777659 10.3052708,11.530124 C10.9601326,11.2840543 11.4002278,12.2577873 11.5586621,12.690167 C11.3791033,12.1312372 10.8826758,10.4685089 10.8016982,8.71789866 C11.3896655,7.89532274 12.5656001,6.52084759 13.9598219,6.29938484 C13.9598219,6.29938484 16.9771151,9.89551804 23.1701357,9.82169712 C22.9940975,11.1293819 22.6561044,12.2472415 22.5117531,12.690167 C22.6701874,12.2577873 23.1102827,11.2840543 23.7651445,11.530124 C24.1594698,11.6777659 24.8284146,12.465189 23.0785958,14.3739869 C23.0785958,14.3739869 22.4307756,16.1316278 21.7512685,17.3971292 C21.5893134,17.6994434 21.4238376,17.9771507 21.2654033,18.1915829 C20.7724966,18.8665169 20.1704463,19.3305341 19.5543129,19.6469095 C18.6635601,20.1038961 17.7411204,20.2480226 17.0792172,20.2480226 C17.0686549,20.2480226 17.0545718,20.2480226 17.036968,20.2445074 C17.0193642,20.2445074 17.0052811,20.2480226 16.9947189,20.2480226 C16.3152118,20.2480226 15.3610852,20.0968655 14.4492078,19.6117567 C13.854199,19.2953813 13.2803148,18.8383947 12.8050119,18.1915829 C12.6500984,17.9771507 12.4846226,17.706474 12.3261883,17.4041597 C11.6431604,16.1421736 10.9918194,14.3739869 10.9918194,14.3739869 L10.9918194,14.3739869 Z M17.3749612,33.7467044 C17.1601947,33.8838004 17.0334472,33.9505908 17.0334472,33.9505908 C17.0334472,33.9505908 16.9066998,33.8802851 16.6919333,33.7467044 C15.4983949,32.9944341 11.5621829,30.2173616 11.0199855,25.9709013 C12.3050637,25.3908798 14.4527286,24.2378674 14.4527286,22.1462748 L14.4527286,22.061908 C15.572331,22.4450737 16.5475821,22.4978029 16.9911981,22.4978029 L17.0756964,22.4978029 C17.5122709,22.4978029 18.4593559,22.448589 19.5507922,22.0829997 L19.5507922,22.1462748 C19.5507922,24.2730202 21.7723931,25.4330632 23.046909,25.9990235 C22.4906286,30.2279074 18.5649788,32.9979494 17.3749612,33.7467044 Z" id="形状"></path>
                <path d="M20,24.1498423 L18.857362,23 L16.142638,23 L15,24.1498423 C15,24.1498423 15.6518405,25.4345426 16.7101227,25.9349369 L15,29.9274448 C15,29.9274448 16.25,31.5741325 17.5,32 C18.7461656,31.5741325 20,29.9274448 20,29.9274448 L18.2898773,25.9349369 C19.3443252,25.4345426 20,24.1498423 20,24.1498423 L20,24.1498423 Z" id="路径"></path>
            </g>
        </g>
    </g>
</svg>