<?xml version="1.0" encoding="UTF-8"?>
<svg width="80px" height="89px" viewBox="0 0 80 89" version="1.1" xmlns="http://www.w3.org/2000/svg" xmlns:xlink="http://www.w3.org/1999/xlink">
    <title>会议@2x</title>
    <g id="会议" stroke="none" stroke-width="1" fill="none" fill-rule="evenodd">
        <g id="常规点" transform="translate(1.052632, 1.047059)" fill-rule="nonzero">
            <g id="路径">
                <path d="M78,38.8722779 C78,51.8300805 71.5926171,63.3063748 61.8426313,70.3407428 C55.4355884,75.0607132 38.9997166,87 38.9997166,87 C38.9997166,87 22.3784029,74.9680695 15.8784123,70.2479862 C6.22148754,63.1214264 0,51.7374368 0,38.8722779 C0,17.3998418 17.4569361,0 38.9997166,0 C60.5426105,0 78,17.3998418 78,38.8722779 L78,38.8722779 Z" fill="#FFA940"></path>
                <path d="M6,38.9998322 C6,57.2251532 20.7745111,72 38.9997203,72 C57.2251532,72 72,57.2251532 72,38.9998322 C72,20.7745111 57.2251532,6 38.9997203,6 C20.7745111,6 6,20.7745111 6,38.9998322 L6,38.9998322 Z" fill="#FFFFFF"></path>
            </g>
            <g id="视频会议" transform="translate(18.947368, 21.952941)" fill="#FFA940">
                <path d="M34.0005,0 L3.99950001,0 C1.80024999,0 0,1.70586254 0,3.78972876 L0,24.6308138 C0,26.7146799 1.80024999,28.4205425 3.99950001,28.4205425 L13.99825,28.4205425 L12.000875,33.1577034 L8.500125,33.1577034 C7.69974999,33.1577034 6.99912501,33.8216329 6.99912501,34.5800633 C6.99912501,35.3360705 7.69975002,36 8.500125,36 L29.499875,36 C30.30025,36 31.000875,35.3360705 31.000875,34.5800633 C31.000875,33.8216329 30.30025,33.1577034 29.499875,33.1577034 L25.999125,33.1577034 L23.999375,28.4205425 L33.998125,28.4205425 C36.19975,28.4205425 38,26.717103 38,24.6308138 L38,3.78972876 C38,1.70586254 36.19975,0 34.0005,0 Z M27.47875,20.4921586 C27.47875,21.4153598 26.676,22.1544053 25.671375,22.1544053 L13.0055,22.1544053 C12.000875,22.1544053 11.19575,21.4153598 11.19575,20.4921586 L11.19575,17.5383994 C11.19575,16.3389648 12.100625,15.3236858 13.3095,15.1395302 L17.430125,14.3084068 C16.123875,13.6614391 15.216625,12.4620045 15.216625,10.9839133 L15.216625,9.23201184 C15.216625,7.19903077 17.026375,5.53920711 19.239875,5.53920711 C21.448625,5.53920711 23.26075,7.19903077 23.26075,9.23201184 L23.26075,10.8918355 C23.26075,12.3699267 22.355875,13.5693613 21.04725,14.216329 L25.36975,15.0474524 C26.57625,15.3236858 27.4835,16.3389648 27.4835,17.4463216 L27.4835,20.4921586 L27.47875,20.4921586 Z M33.926875,8.30881066 C33.1839853,8.2909093 32.585921,7.68073256 32.568375,6.92279734 C32.568375,6.18375179 33.2025,5.53920711 33.926875,5.53920711 C34.648875,5.53920711 35.283,6.18375175 35.283,6.92279734 C35.2655062,7.67981863 34.6688371,8.28963797 33.926875,8.30881066 L33.926875,8.30881066 Z" id="形状"></path>
            </g>
        </g>
    </g>
</svg>