<?xml version="1.0" encoding="UTF-8"?>
<svg width="80px" height="89px" viewBox="0 0 80 89" version="1.1" xmlns="http://www.w3.org/2000/svg" xmlns:xlink="http://www.w3.org/1999/xlink">
    <title>围网报警@2x</title>
    <g id="围网报警" stroke="none" stroke-width="1" fill="none" fill-rule="evenodd">
        <g id="常规点" transform="translate(1.052632, 1.047059)" fill-rule="nonzero">
            <g id="路径">
                <path d="M78,38.8722779 C78,51.8300805 71.5926171,63.3063748 61.8426313,70.3407428 C55.4355884,75.0607132 38.9997166,87 38.9997166,87 C38.9997166,87 22.3784029,74.9680695 15.8784123,70.2479862 C6.22148754,63.1214264 0,51.7374368 0,38.8722779 C0,17.3998418 17.4569361,0 38.9997166,0 C60.5426105,0 78,17.3998418 78,38.8722779 L78,38.8722779 Z" fill="#F5222D"></path>
                <path d="M6,38.9998322 C6,57.2251532 20.7745111,72 38.9997203,72 C57.2251532,72 72,57.2251532 72,38.9998322 C72,20.7745111 57.2251532,6 38.9997203,6 C20.7745111,6 6,20.7745111 6,38.9998322 L6,38.9998322 Z" fill="#FFFFFF"></path>
            </g>
            <g id="报警" transform="translate(49.947368, 43.952941)">
                <rect id="矩形" fill="#000000" opacity="0" x="0" y="0" width="13" height="13"></rect>
                <path d="M11.7802805,11.3196421 C11.5107567,11.7560101 11.0736797,12 10.5611006,12 L2.43879988,12 C1.92622082,12 1.48919292,11.7560101 1.21971816,11.3196421 C0.950304783,10.883274 0.927776939,10.3828823 1.15697167,9.92394944 L5.21812204,1.79304707 C5.4676348,1.29355153 5.94215591,1 6.49995025,1 C7.05790418,1 7.53236391,1.29353926 7.78177846,1.79304707 L11.8429779,9.92394944 C12.072234,10.3828823 12.0497062,10.8832863 11.7802805,11.3196421 Z M6.50002391,10.0358406 C6.82548067,10.0358406 7.08930812,9.77201126 7.08930812,9.44655222 C7.08930812,9.12109317 6.82548067,8.85726387 6.50002391,8.85726387 C6.17456715,8.85726387 5.91073969,9.12109317 5.91073969,9.44655222 C5.91073969,9.77201126 6.17456715,10.0358406 6.50002391,10.0358406 Z M7.38395023,5.02688963 C7.38395023,4.53870107 6.98820905,4.14295711 6.50002391,4.14295711 C6.01183877,4.14295711 5.61609759,4.53870107 5.61609759,5.02688963 L5.61609759,5.10055067 L6.2053818,8.28639079 L6.20600792,8.28639079 C6.2155224,8.44052652 6.34348301,8.5626197 6.50002391,8.5626197 C6.65655253,8.5626197 6.78452542,8.44052652 6.79402762,8.28639079 L6.79466602,8.28639079 L7.38395023,5.10055067 L7.38395023,5.02688963 Z" id="形状" fill="#F5222D"></path>
            </g>
            <g id="24gf-fence" transform="translate(20.947368, 15.952941)">
                <rect id="矩形" fill="#000000" opacity="0" x="0" y="0" width="34" height="39"></rect>
                <path d="M30.7908482,7.4343653 L27.9337054,4.23437823 C27.7997461,4.08431021 27.61804,4 27.4285714,4 C27.2391028,4 27.0573967,4.08431021 26.9234375,4.23437823 L24.0662946,7.4343653 C23.9323471,7.58442019 23.8571123,7.78792758 23.8571428,8.00011303 L23.8571428,10.4001033 L19.5714286,10.4001033 L19.5714286,8.00011303 C19.5714592,7.78792758 19.4962243,7.5844202 19.3622768,7.4343653 L16.5051339,4.23437823 C16.3711747,4.08431023 16.1894686,4 16,4 C15.8105314,4 15.6288253,4.08431023 15.4948661,4.23437823 L12.6377232,7.4343653 C12.5037757,7.58442019 12.4285408,7.78792758 12.4285714,8.00011303 L12.4285714,10.4001033 L8.14285714,10.4001033 L8.14285714,8.00011303 C8.14288773,7.78792758 8.06765289,7.58442019 7.93370534,7.4343653 L5.0765625,4.23437823 C4.94260326,4.08431023 4.76089718,4 4.57142858,4 C4.38195997,4 4.20025389,4.08431023 4.06629465,4.23437823 L1.20915177,7.4343653 C1.07520424,7.5844202 1,7.78792758 1,8.00011303 L1,35.2000032 C1,35.4121755 1.07525488,35.6156579 1.20920944,35.7656864 C1.34316399,35.9157149 1.52484536,36 1.71428571,36 L7.42857144,36 C7.61801179,36 7.79969316,35.9157149 7.93364771,35.7656864 C8.06760227,35.6156579 8.14285715,35.4121755 8.14285714,35.2000032 L8.14285714,32.8000129 L12.4285714,32.8000129 L12.4285714,35.2000032 C12.4285714,35.4121755 12.5038263,35.6156579 12.6377809,35.7656864 C12.7717354,35.9157149 12.9534168,36 13.1428571,36 L18.8571429,36 C19.0465832,36 19.2282646,35.9157149 19.3622191,35.7656864 C19.4961737,35.6156579 19.5714286,35.4121755 19.5714286,35.2000032 L19.5714286,32.8000129 L23.8571428,32.8000129 L23.8571428,35.2000032 C23.8571428,35.4121755 23.9323977,35.6156579 24.0663523,35.7656864 C24.2003068,35.9157149 24.3819882,36 24.5714286,36 L30.2857143,36 C30.4751546,36 30.656836,35.9157149 30.7907906,35.7656864 C30.9247451,35.6156579 31,35.4121755 31,35.2000032 L31,8.00011303 C31,7.78792758 30.9247958,7.58442019 30.7908482,7.4343653 L30.7908482,7.4343653 Z M5.2857143,29.6000258 L3.85714286,29.6000258 L3.85714286,28.0000323 L5.2857143,28.0000323 L5.2857143,29.6000258 Z M5.2857143,13.6000904 L3.85714286,13.6000904 L3.85714286,12.0000969 L5.2857143,12.0000969 L5.2857143,13.6000904 Z M12.4285714,26.4000388 L8.14285714,26.4000388 L8.14285714,16.8000775 L12.4285714,16.8000775 L12.4285714,26.4000388 Z M16.7142857,29.6000258 L15.2857143,29.6000258 L15.2857143,28.0000323 L16.7142857,28.0000323 L16.7142857,29.6000258 Z M16.7142857,13.6000904 L15.2857143,13.6000904 L15.2857143,12.0000969 L16.7142857,12.0000969 L16.7142857,13.6000904 Z M23.8571428,26.4000388 L19.5714286,26.4000388 L19.5714286,16.8000775 L23.8571428,16.8000775 L23.8571428,26.4000388 Z M28.1428571,29.6000258 L26.7142857,29.6000258 L26.7142857,28.0000323 L28.1428571,28.0000323 L28.1428571,29.6000258 Z M28.1428571,13.6000904 L26.7142857,13.6000904 L26.7142857,12.0000969 L28.1428571,12.0000969 L28.1428571,13.6000904 Z" id="形状" fill="#F5222D"></path>
            </g>
        </g>
    </g>
</svg>