<?xml version="1.0" encoding="UTF-8"?>
<svg width="80px" height="89px" viewBox="0 0 80 89" version="1.1" xmlns="http://www.w3.org/2000/svg" xmlns:xlink="http://www.w3.org/1999/xlink">
    <title>常规点@2x</title>
    <g id="常规点" stroke="none" stroke-width="1" fill="none" fill-rule="evenodd">
        <g transform="translate(1.052632, 1.047059)" fill-rule="nonzero">
            <g id="路径">
                <path d="M78,38.8722779 C78,51.8300805 71.5926171,63.3063748 61.8426313,70.3407428 C55.4355884,75.0607132 38.9997166,87 38.9997166,87 C38.9997166,87 22.3784029,74.9680695 15.8784123,70.2479862 C6.22148754,63.1214264 0,51.7374368 0,38.8722779 C0,17.3998418 17.4569361,0 38.9997166,0 C60.5426105,0 78,17.3998418 78,38.8722779 L78,38.8722779 Z" fill="#FF7A45"></path>
                <path d="M6,38.9998322 C6,57.2251532 20.7745111,72 38.9997203,72 C57.2251532,72 72,57.2251532 72,38.9998322 C72,20.7745111 57.2251532,6 38.9997203,6 C20.7745111,6 6,20.7745111 6,38.9998322 L6,38.9998322 Z" fill="#FFFFFF"></path>
            </g>
            <g id="地点" transform="translate(18.947368, 18.952941)">
                <rect id="矩形" fill="#000000" opacity="0" x="0" y="0" width="42" height="42"></rect>
                <path d="M20.5,0 C13.5944056,0 8,5.43579373 8,12.1456016 C8,18.8554095 13.5944056,24.2912032 20.5,24.2912032 C27.4055944,24.2912032 33,18.8554095 33,12.1456016 C33,5.43579377 27.4055944,0 20.5,0 Z M21.7674825,4.96865521 C21.6363636,5.43579373 21.1555944,5.7330637 20.6311189,5.64812944 C20.1940559,5.56319515 19.756993,5.47826089 19.2762238,5.47826085 C16.041958,5.47826085 13.4632867,8.02628917 13.4632867,11.1263903 C13.4632867,11.5085946 13.506993,11.9332659 13.5944056,12.3154702 C13.6818182,12.7826087 13.3758741,13.2922143 12.8951049,13.3771486 L12.7202797,13.3771486 C12.2832168,13.3771486 11.8898602,13.0798787 11.8024476,12.6552073 C11.715035,12.1456016 11.6276224,11.6359959 11.6276224,11.1263903 C11.6276224,7.00707787 15.0804196,3.6521739 19.3199301,3.6521739 C19.9318182,3.6521739 20.5,3.7371082 21.1118881,3.86450962 C21.5926573,3.99191104 21.8986014,4.50151669 21.7674825,4.96865521 L21.7674825,4.96865521 Z M22.4230769,25.5652174 C21.7237762,25.6926188 21.0681818,25.7350859 20.3251748,25.7350859 C19.5821679,25.7350859 18.9265734,25.6926188 18.2272727,25.5652174 C17.6590909,25.6926188 17.222028,26.2022245 17.222028,26.7967644 L17.222028,40.7259859 C17.222028,41.4054601 17.7902098,42 18.5332168,42 L22.1171328,42 C22.8601398,42 23.4283217,41.4054601 23.4283217,40.7259859 L23.4283217,26.7967644 C23.4283217,26.2022245 22.9912587,25.7350859 22.4230769,25.5652174 Z" id="形状" fill="#FF7A45"></path>
            </g>
        </g>
    </g>
</svg>