<?xml version="1.0" encoding="UTF-8"?>
<svg width="80px" height="89px" viewBox="0 0 80 89" version="1.1" xmlns="http://www.w3.org/2000/svg" xmlns:xlink="http://www.w3.org/1999/xlink">
    <title>房子@2x</title>
    <g id="房子" stroke="none" stroke-width="1" fill="none" fill-rule="evenodd">
        <g id="常规点" transform="translate(1.052632, 1.047059)" fill-rule="nonzero">
            <g id="路径">
                <path d="M78,38.8722779 C78,51.8300805 71.5926171,63.3063748 61.8426313,70.3407428 C55.4355884,75.0607132 38.9997166,87 38.9997166,87 C38.9997166,87 22.3784029,74.9680695 15.8784123,70.2479862 C6.22148754,63.1214264 0,51.7374368 0,38.8722779 C0,17.3998418 17.4569361,0 38.9997166,0 C60.5426105,0 78,17.3998418 78,38.8722779 L78,38.8722779 Z" fill="#9254DE"></path>
                <path d="M6,38.9998322 C6,57.2251532 20.7745111,72 38.9997203,72 C57.2251532,72 72,57.2251532 72,38.9998322 C72,20.7745111 57.2251532,6 38.9997203,6 C20.7745111,6 6,20.7745111 6,38.9998322 L6,38.9998322 Z" fill="#FFFFFF"></path>
            </g>
            <g id="首页,屋子,主页,房子" transform="translate(19.947368, 19.952941)">
                <rect id="矩形" fill="#000000" opacity="0" x="0" y="0" width="38" height="38"></rect>
                <path d="M21,29.3245351 L21,37.7108178 C21,37.869868 20.8862559,38 20.7472354,38 L17.2527646,38 C17.1137441,38 17,37.869868 17,37.7108178 L17,29.2883873 C17,28.0159857 17.9131122,26.9821595 19.028436,27.0002334 C20.1279621,27.0219221 21,28.0702075 21,29.3245351 Z" id="路径" fill="#9254DE"></path>
                <path d="M35,36.8110377 C35,37.4666338 34.4682102,38 33.8099808,38 L24.4980806,38 C24.334453,38 24.2005758,37.8666584 24.2005758,37.7036854 L24.2005758,29.1253781 C24.2005758,26.5215137 22.0994482,24.369529 19.4851247,24.3584172 C16.8633637,24.3510093 14.7362044,26.4622508 14.7362044,29.0735231 L14.7362044,37.7036854 C14.7362044,37.8666584 14.6023272,38 14.4386996,38 L5.1900192,38 C4.53178984,38 4,37.4703377 4,36.8147416 L4.00371882,21.3286005 C4.00371882,20.643373 4.30122362,19.987777 4.82185699,19.5396012 L17.1459933,8.87227605 C18.4884837,7.70924132 20.4854846,7.70924132 21.827975,8.87227605 L34.1558301,19.5396012 C34.6764635,19.987777 34.9739683,20.6396691 34.9739683,21.3248966 L35,36.8110377 L35,36.8110377 Z" id="路径" fill="#9254DE"></path>
                <path d="M38,17.7672578 L38,17.7978664 C38,18.8156026 36.8458985,19.3703836 36.0888672,18.7199507 L33.9550781,16.8796083 L27.3125,11.102234 L21.2785156,5.8566843 C19.95,4.70120944 18.0128906,4.70120944 16.684375,5.8566843 L1.94453125,18.6740378 C1.1763672,19.343601 0,18.7811679 0,17.7443014 L0,17.7289971 C0,17.369346 0.152148431,17.0288252 0.419335922,16.7992607 L15.9199219,3.31617004 C17.690039,1.77808762 20.2765625,1.77808762 22.0466797,3.31617004 L26.8263672,7.47128821 C27.0193359,7.63963553 27.3162109,7.49807074 27.3162109,7.23789761 L27.3162109,3.22434422 C27.3162109,2.54712883 27.846875,2 28.5037109,2 L32.7712891,2 C33.428125,2 33.9587891,2.54712883 33.9587891,3.22434422 L33.9587891,13.1070977 C33.9587891,13.4667488 34.1146484,13.8110956 34.3818359,14.0444862 C35.1611328,14.7217016 36.808789,16.15648 37.584375,16.8298693 C37.8478516,17.0594339 38,17.3999546 38,17.7672578 Z" id="路径" fill="#9254DE"></path>
            </g>
        </g>
    </g>
</svg>