<?xml version="1.0" encoding="UTF-8"?>
<svg width="80px" height="89px" viewBox="0 0 80 89" version="1.1" xmlns="http://www.w3.org/2000/svg" xmlns:xlink="http://www.w3.org/1999/xlink">
    <title>报警点@2x</title>
    <g id="报警点" stroke="none" stroke-width="1" fill="none" fill-rule="evenodd">
        <g id="常规点" transform="translate(1.052632, 1.047059)" fill-rule="nonzero">
            <g id="路径">
                <path d="M78,38.8722779 C78,51.8300805 71.5926171,63.3063748 61.8426313,70.3407428 C55.4355884,75.0607132 38.9997166,87 38.9997166,87 C38.9997166,87 22.3784029,74.9680695 15.8784123,70.2479862 C6.22148754,63.1214264 0,51.7374368 0,38.8722779 C0,17.3998418 17.4569361,0 38.9997166,0 C60.5426105,0 78,17.3998418 78,38.8722779 L78,38.8722779 Z" fill="#FF4D4F"></path>
                <path d="M6,38.9998322 C6,57.2251532 20.7745111,72 38.9997203,72 C57.2251532,72 72,57.2251532 72,38.9998322 C72,20.7745111 57.2251532,6 38.9997203,6 C20.7745111,6 6,20.7745111 6,38.9998322 L6,38.9998322 Z" fill="#FFFFFF"></path>
            </g>
            <g id="一键报警器" transform="translate(16.947368, 21.952941)" fill="#FF4D4F">
                <path d="M35.9727041,20.3777778 C35.0123224,20.3777778 34.2120043,19.6388889 34.2120043,18.7055555 C34.2120043,18.3166667 34.332052,17.9666667 34.5721474,17.6555555 C34.8522587,17.3055555 35.2524178,17.0722222 35.7326087,16.9944445 L40.9346762,16.2555555 C41.8950579,16.1 42.8154237,16.7222222 42.9754873,17.6555555 C43.1355509,18.5888889 42.4952964,19.4833333 41.5349147,19.6388889 L41.4548829,19.6388889 L36.2528154,20.3777778 L35.9727041,20.3777778 L35.9727041,20.3777778 Z M6.96117364,19.7166667 C6.84112593,19.7166667 6.72107822,19.7166667 6.60103051,19.6777778 L1.43897889,18.7055555 L1.398963,18.7055555 C0.438581302,18.5111111 -0.161657259,17.6166667 0.0384222773,16.7222222 C0.198485878,15.9055555 0.958788086,15.3611111 1.79912202,15.3611111 C1.91916974,15.3611111 2.03921745,15.3611111 2.15926516,15.4 L7.32131678,16.4111111 C7.80150763,16.4888889 8.20166665,16.7611111 8.44176212,17.15 C8.72187344,17.5388889 8.80190526,17.9666667 8.72187344,18.4333333 C8.5217939,19.1333333 7.80150763,19.7166667 6.96117364,19.7166667 Z M31.1307797,11.9 C30.6906047,11.9 30.2904457,11.7444445 29.9703185,11.4722222 L29.9303026,11.4722222 C29.2100163,10.85 29.1700004,9.8 29.8102549,9.1 L33.2916385,5.32777779 C33.931893,4.62777779 35.0523383,4.55 35.8126405,5.17222221 C36.5329268,5.79444441 36.5729426,6.84444441 35.9326882,7.54444446 L32.4513045,11.3166667 C32.1311773,11.7055555 31.6509864,11.9 31.1307797,11.9 L31.1307797,11.9 Z M12.2032571,11.4722222 C11.6430344,11.4722222 11.1628436,11.2388889 10.8027004,10.8111111 L7.52139631,6.88333333 C6.92115775,6.14444446 7.08122135,5.09444446 7.84152356,4.51111113 C8.16165081,4.27777779 8.56180984,4.12222221 8.96196886,4.12222221 C9.4821756,4.12222221 10.0023824,4.35555554 10.3625255,4.78333333 L13.6438296,8.71111113 C14.2440682,9.45 14.0840046,10.5 13.3237024,11.0833333 C13.0035751,11.3555555 12.6034161,11.4722222 12.2032571,11.4722222 L12.2032571,11.4722222 Z M21.7670582,8.4 L21.7270422,8.4 C21.2468514,8.4 20.8066764,8.20555554 20.4865492,7.89444446 C20.166422,7.58333338 19.9663425,7.11666667 20.0063584,6.68888887 L20.0063584,1.67222221 C20.0463743,0.738888874 20.8066765,0 21.7670582,0 L21.8070741,0 C22.7674557,0 23.5677738,0.816666667 23.5277579,1.75 L23.5277579,6.76666667 C23.487742,7.66111113 22.7274398,8.4 21.7670582,8.4 Z M21.5669786,9.79977714 L21.406915,9.79977714 C15.1244181,9.76111113 9.96236649,14.8166667 9.92235056,21.1166667 L9.92235056,35 L21.3268832,35 L17.2852769,30.0611111 C17.2852769,30.0611111 17.0851973,28.2333333 18.8859131,28.9722222 C19.9263266,29.4388889 20.2864697,30.4111111 20.2864697,30.4111111 L20.3264856,22.8666667 C20.3264856,22.8666667 21.406915,21.2722222 22.3672967,22.8666667 L22.4073126,27.6111111 C22.4073126,27.6111111 23.5677738,26.0555556 24.9683305,27.7277778 C24.9683305,27.7277778 26.008744,26.0166667 27.4493165,27.8055555 C27.4493165,27.8055555 28.48973,25.8222222 29.4901276,28 L29.4901276,33.9888889 C29.4901276,33.9888889 29.4100958,34.4555555 28.6097778,35 L33.0515431,35 L33.0515431,21.1166667 C33.0115272,14.8166667 27.8494756,9.76111113 21.5669786,9.79977714 L21.5669786,9.79977714 Z M24.2880601,25.55 L24.2880601,23.8 C25.1283941,23.0222222 25.6886168,21.9333333 25.6886167,20.7666667 C25.6886167,18.5111111 23.8078692,16.6833333 21.4469309,16.6833333 C19.0859926,16.6833333 17.2052451,18.5111111 17.2052451,20.7666667 C17.2052451,21.9722222 17.7654678,23.0611111 18.6458176,23.8 L18.6458176,25.4722222 C16.9251338,24.5388889 15.7646726,22.7888889 15.7646726,20.7666667 C15.7646726,17.7333333 18.2856745,15.2833333 21.4469309,15.2833333 C24.5681714,15.2833333 27.1692052,17.7333333 27.1291893,20.8444445 C27.1291893,22.8666667 26.008744,24.6166667 24.2880601,25.55 L24.2880601,25.55 Z" id="形状"></path>
            </g>
        </g>
    </g>
</svg>