<?xml version="1.0" encoding="UTF-8"?>
<svg width="80px" height="89px" viewBox="0 0 80 89" version="1.1" xmlns="http://www.w3.org/2000/svg" xmlns:xlink="http://www.w3.org/1999/xlink">
    <title>指挥机@2x</title>
    <g id="指挥机" stroke="none" stroke-width="1" fill="none" fill-rule="evenodd">
        <g id="常规点" transform="translate(1.052632, 1.047059)" fill-rule="nonzero">
            <g id="路径">
                <path d="M78,38.8722779 C78,51.8300805 71.5926171,63.3063748 61.8426313,70.3407428 C55.4355884,75.0607132 38.9997166,87 38.9997166,87 C38.9997166,87 22.3784029,74.9680695 15.8784123,70.2479862 C6.22148754,63.1214264 0,51.7374368 0,38.8722779 C0,17.3998418 17.4569361,0 38.9997166,0 C60.5426105,0 78,17.3998418 78,38.8722779 L78,38.8722779 Z" fill="#73D13D"></path>
                <path d="M6,38.9998322 C6,57.2251532 20.7745111,72 38.9997203,72 C57.2251532,72 72,57.2251532 72,38.9998322 C72,20.7745111 57.2251532,6 38.9997203,6 C20.7745111,6 6,20.7745111 6,38.9998322 L6,38.9998322 Z" fill="#FFFFFF"></path>
            </g>
            <path d="M53.8388333,27.9739694 L48.7821746,27.9739694 L48.7821746,25.6508071 L51.2314936,25.6508071 C52.0169448,25.6508071 52.6536789,25.0468693 52.6536789,24.3018741 C52.6536789,23.556879 52.0169448,22.9529412 51.2314936,22.9529412 L43.4094747,22.9529412 C42.6240234,22.9529412 41.9872894,23.556879 41.9872894,24.3018741 C41.9872894,25.0468693 42.6240234,25.6508071 43.4094747,25.6508071 L45.8587938,25.6508071 L45.8587938,27.9739694 L31.8779226,27.9739694 L31.8779226,25.6508071 L34.3272416,25.6508071 C35.1126928,25.6508071 35.7494268,25.0468693 35.7494268,24.3018741 C35.7494268,23.556879 35.1126928,22.9529412 34.3272416,22.9529412 L26.5802825,22.9529412 C25.7948313,22.9529412 25.1580972,23.556879 25.1580972,24.3018741 C25.1580972,25.0468693 25.7948313,25.6508071 26.5802825,25.6508071 L29.0296015,25.6508071 L29.0296015,27.9739694 L23.9768934,27.9739694 C21.7550461,27.9821855 19.9560307,29.6885393 19.9473684,31.7959462 L19.9473684,31.8708869 C19.9560307,33.9782937 21.7550461,35.6846475 23.9768934,35.6928635 L30.376727,35.6928635 C29.9698286,36.6978869 29.7557628,37.7638466 29.7446447,38.8403738 C29.7581575,39.3181764 29.8109917,39.7942485 29.9026652,40.2642475 C25.1087987,43.1735026 22.2161198,48.2057141 22.2347164,53.6036956 C22.2345986,54.0856974 22.5056399,54.5311332 22.9457139,54.7721663 C23.3857879,55.0131995 23.9280154,55.0131995 24.3680894,54.7721663 C24.8081634,54.5311332 25.0792047,54.0856974 25.0790869,53.6036956 C25.0841891,49.3828293 27.230815,45.4222743 30.8468382,42.9621134 C32.4395098,45.8019264 35.5541111,47.5765989 38.9453932,47.5765989 C42.3366753,47.5765989 45.4512765,45.8019264 47.0439481,42.9621134 C50.6599713,45.4222743 52.8065972,49.3828293 52.8116995,53.6036956 C52.8116995,54.3486906 53.4484335,54.9529412 54.2338847,54.9529412 C55.0193359,54.9529412 55.6560699,54.3486906 55.65607,53.6036956 C55.6403701,48.2149341 52.7578497,43.19781 47.9920716,40.2642475 C48.0837451,39.7942485 48.1365793,39.3181764 48.1500922,38.8403738 C48.1389741,37.7638466 47.9249083,36.6978869 47.5180099,35.6928635 L53.9178435,35.6928635 C56.1396908,35.6846474 57.9387061,33.9782937 57.9473684,31.8708869 L57.9473684,31.7959462 C57.873726,29.6856939 56.0646909,28.0028337 53.8388333,27.9739694 L53.8388333,27.9739694 Z M38.4473684,43.9529412 C36.5143688,43.9529412 34.9473684,42.6097932 34.9473684,40.9529412 C34.9473684,39.2960863 36.514369,37.9529412 38.4473684,37.9529412 C40.3803551,37.9529412 41.9473684,39.2960863 41.9473684,40.9529412 C41.9498719,41.7485454 41.5825816,42.5122454 40.9266829,43.0752058 C40.2707841,43.6381663 39.3802995,43.9540194 38.4520917,43.9529412 L38.4473684,43.9529412 Z" id="指挥机" fill="#73D13D"></path>
        </g>
    </g>
</svg>