<?xml version="1.0" encoding="UTF-8"?>
<svg width="80px" height="89px" viewBox="0 0 80 89" version="1.1" xmlns="http://www.w3.org/2000/svg" xmlns:xlink="http://www.w3.org/1999/xlink">
    <title>摄像头@2x</title>
    <g id="摄像头" stroke="none" stroke-width="1" fill="none" fill-rule="evenodd">
        <g id="常规点" transform="translate(1.052632, 1.047059)" fill-rule="nonzero">
            <g id="路径">
                <path d="M78,38.8722779 C78,51.8300805 71.5926171,63.3063748 61.8426313,70.3407428 C55.4355884,75.0607132 38.9997166,87 38.9997166,87 C38.9997166,87 22.3784029,74.9680695 15.8784123,70.2479862 C6.22148754,63.1214264 0,51.7374368 0,38.8722779 C0,17.3998418 17.4569361,0 38.9997166,0 C60.5426105,0 78,17.3998418 78,38.8722779 L78,38.8722779 Z" fill="#1890FF"></path>
                <path d="M6,38.9998322 C6,57.2251532 20.7745111,72 38.9997203,72 C57.2251532,72 72,57.2251532 72,38.9998322 C72,20.7745111 57.2251532,6 38.9997203,6 C20.7745111,6 6,20.7745111 6,38.9998322 L6,38.9998322 Z" fill="#FFFFFF"></path>
            </g>
            <g id="摄像头" transform="translate(21.410783, 21.952941)" fill="#1890FF">
                <path d="M33.1050206,26.5429618 C32.8366451,26.251389 32.3746862,26.2173582 32.0629031,26.4661928 L29.8183424,28.155109 C29.5735539,28.3853015 29.1813392,28.3853015 28.9365507,28.155109 L5.84964083,13.1084014 C5.70316518,13.0001236 5.51622171,12.9551509 5.33370211,12.9842828 C5.15118251,13.0134148 4.98957465,13.1140199 4.88768627,13.2619392 L3.84556878,14.7205487 C3.61101918,15.0405869 3.68174184,15.4808213 4.00589455,15.7185445 L4.08605748,15.7185445 L29.0167136,31.3794035 C29.1631893,31.4876813 29.3501328,31.532654 29.5326524,31.503522 C29.715172,31.47439 29.8767798,31.373785 29.9786682,31.2258656 L33.1851834,27.6944955 C33.4260771,27.4018253 33.4260771,26.9891697 33.1851834,26.6964995 L33.1050206,26.5429618 L33.1050206,26.5429618 Z" id="路径"></path>
                <path d="M36.8003973,19.5658581 L9.08274054,1.02086252 L7.39067429,0.0778966587 C7.05268558,-0.0851946108 6.64330809,0.0146169155 6.42377923,0.313638181 L0.138961768,9.19323351 C-0.0967924497,9.52082392 -0.0257066053,9.97144687 0.300110868,10.2147798 L1.10585676,10.7648432 L26.2451268,26.4023607 C27.2482463,26.6290058 28.302866,26.4290159 29.1458119,25.8522973 L36.6392481,20.9017264 C36.7198227,20.823146 36.8003973,20.823146 36.8003973,20.7445655 C37.2032702,20.2730825 37.1226957,19.8015996 36.8003973,19.5658581 L36.8003973,19.5658581 Z M13.0308951,23.8092045 L9.96906098,22.1590143 C9.88848643,22.1590143 9.88848643,22.0804338 9.8079118,22.0804338 C9.62625036,22.0235585 9.42862342,22.0417983 9.26112717,22.1308988 C9.09363091,22.2199994 8.97091089,22.3721699 8.92159136,22.5519168 L8.1964201,24.9093314 C8.09517788,25.2108317 7.79555851,25.4056345 7.47124884,25.3808143 L4.65113843,25.3808143 C4.4584822,25.381867 4.27340428,25.3076941 4.13717361,25.1748349 C4.00094295,25.0419758 3.92488784,24.8614782 3.92596717,24.6735899 L3.92596717,20.823146 C3.91740918,20.4922584 3.68868325,20.2054602 3.36194509,20.1159215 L0.944707578,19.6444275 L0.783558401,19.6444275 C0.590902171,19.643386 0.405824249,19.7175588 0.269593585,19.850418 C0.13336292,19.9832772 0.0573078119,20.1637747 0.0583758074,20.351663 L0.0583758074,36.1463415 L3.92596717,34.7318926 L3.92596717,29.6241608 C3.92488784,29.4362725 4.00094295,29.255775 4.13717361,29.1229158 C4.27340428,28.9900567 4.4584822,28.9158838 4.65113843,28.9169364 L9.88848635,28.9169364 C10.127329,28.9465446 10.3574058,28.8183259 10.4525084,28.6026144 L13.1920443,24.8307509 C13.4277986,24.5031605 13.3567127,24.0525375 13.0308951,23.8092045 L13.0308951,23.8092045 Z" id="形状"></path>
            </g>
        </g>
    </g>
</svg>