<?xml version="1.0" encoding="UTF-8"?>
<svg width="80px" height="110px" viewBox="0 0 80 110" version="1.1" xmlns="http://www.w3.org/2000/svg" xmlns:xlink="http://www.w3.org/1999/xlink">
    <title>站点@1x</title>
    <defs>
        <ellipse id="path-1" cx="40.5" cy="102.5" rx="23.5" ry="7.5"></ellipse>
        <filter x="-8.5%" y="-26.7%" width="117.0%" height="153.3%" filterUnits="objectBoundingBox" id="filter-2">
            <feMorphology radius="2" operator="erode" in="SourceAlpha" result="shadowSpreadInner1"></feMorphology>
            <feGaussianBlur stdDeviation="3" in="shadowSpreadInner1" result="shadowBlurInner1"></feGaussianBlur>
            <feOffset dx="0" dy="0" in="shadowBlurInner1" result="shadowOffsetInner1"></feOffset>
            <feComposite in="shadowOffsetInner1" in2="SourceAlpha" operator="arithmetic" k2="-1" k3="1" result="shadowInnerInner1"></feComposite>
            <feColorMatrix values="0 0 0 0 0.0156862745   0 0 0 0 0.450980392   0 0 0 0 1  0 0 0 1 0" type="matrix" in="shadowInnerInner1"></feColorMatrix>
        </filter>
        <polygon id="path-3" points="40.5 80 54 103 27 103"></polygon>
        <filter x="-11.1%" y="-13.0%" width="122.2%" height="126.1%" filterUnits="objectBoundingBox" id="filter-4">
            <feMorphology radius="2" operator="erode" in="SourceAlpha" result="shadowSpreadInner1"></feMorphology>
            <feGaussianBlur stdDeviation="2" in="shadowSpreadInner1" result="shadowBlurInner1"></feGaussianBlur>
            <feOffset dx="0" dy="0" in="shadowBlurInner1" result="shadowOffsetInner1"></feOffset>
            <feComposite in="shadowOffsetInner1" in2="SourceAlpha" operator="arithmetic" k2="-1" k3="1" result="shadowInnerInner1"></feComposite>
            <feColorMatrix values="0 0 0 0 0.0156862745   0 0 0 0 0.450980392   0 0 0 0 1  0 0 0 1 0" type="matrix" in="shadowInnerInner1"></feColorMatrix>
        </filter>
    </defs>
    <g id="站点" stroke="none" stroke-width="1" fill="none" fill-rule="evenodd">
        <g id="警务站" transform="translate(1.052632, 1.047059)" fill-rule="nonzero">
            <g id="路径" fill="#0473FF">
                <path d="M6,38.9998322 C6,57.2251532 20.7745111,72 38.9997203,72 C57.2251532,72 72,57.2251532 72,38.9998322 C72,20.7745111 57.2251532,6 38.9997203,6 C20.7745111,6 6,20.7745111 6,38.9998322 L6,38.9998322 Z"></path>
            </g>
            <g id="大型站" transform="translate(20.399749, 18.952941)">
                <rect id="矩形" fill="#000000" opacity="0" x="0" y="0" width="38" height="38"></rect>
                <path d="M30.0992801,13.3636909 C29.9314851,13.515044 29.8471476,13.7381367 29.8728541,13.9626408 C29.8985607,14.1871448 30.0311442,14.3853993 30.2288085,14.4949059 C30.4124721,14.6108901 30.6247049,14.6736632 30.8419098,14.6762457 C31.1434493,14.6908776 31.4384778,14.5852884 31.6622566,14.3826479 C36.0662235,10.1427503 35.3408642,3.80449205 30.0388335,0.255412807 C29.5939342,-0.0267663869 29.0175253,0.0116608721 28.6140206,0.350400338 C28.4416909,0.498481936 28.3531965,0.721835388 28.3773413,0.947761772 C28.4014861,1.17368816 28.5351825,1.37329602 28.7349138,1.48161536 C33.1906922,4.4694047 33.8037934,9.79734117 30.0992801,13.3636909 L30.0992801,13.3636909 Z M25.7039483,10.9544619 C25.5331646,11.1068836 25.4477709,11.3332276 25.4753159,11.5604736 C25.5028609,11.7877196 25.6398583,11.987107 25.842112,12.0943121 C26.0257756,12.2102964 26.2380084,12.2730695 26.4552133,12.275652 C26.7567528,12.2902838 27.0517813,12.1846947 27.2755601,11.9820542 C30.2460789,9.12379328 29.7538709,4.84935479 26.178886,2.48330197 C25.7320286,2.19684938 25.1505904,2.23537842 24.7454379,2.5782895 C24.5731082,2.7263711 24.4846137,2.94972455 24.5087585,3.17565093 C24.5329033,3.40157732 24.6665997,3.60118518 24.8663311,3.70950452 C27.5950636,5.50563223 27.9663784,8.76974888 25.7039483,10.9544619 L25.7039483,10.9544619 Z M7.69086008,14.4344593 C8.13028072,14.730661 8.71138399,14.7061567 9.12430814,14.3740127 C9.30052675,14.2324445 9.39633929,14.0136202 9.38084628,13.7881107 C9.36535326,13.5626013 9.24051475,13.3589363 9.04659109,13.2427976 C4.6944355,10.1600208 4.27130929,4.8234491 8.10535109,1.33481646 C8.27917664,1.18931871 8.37056064,0.967800349 8.34988241,0.742063049 C8.32920418,0.516325749 8.19909523,0.315096822 8.00172832,0.203601439 C7.8225536,0.0826297095 7.61326922,0.0138648406 7.39726228,0.00499117383 C7.08381677,-0.0241978239 6.77200833,0.0755808652 6.53373933,0.28131849 C2.01751441,4.42622853 2.51835771,10.7731221 7.69086008,14.4344593 Z M11.6371599,12.3274634 C12.0765805,12.6236651 12.6576838,12.5991608 13.0706079,12.2670168 C13.2436754,12.1202237 13.3336084,11.8977919 13.311198,11.6719638 C13.2887875,11.4461357 13.1568924,11.2457174 12.9583499,11.1358017 C10.2986993,9.2533217 10.0396425,5.95466412 12.3797896,3.84766818 C12.5536151,3.70217043 12.6449991,3.48065207 12.6243209,3.25491477 C12.6036427,3.02917747 12.4735337,2.82794854 12.2761668,2.71645316 C11.8330231,2.42515575 11.251771,2.45666941 10.8427188,2.79417021 C7.77721237,5.58334928 8.14852722,9.85778778 11.6371599,12.3274634 Z M15.0135345,6.24826192 C15.0135345,7.79079708 15.8364672,9.21615836 17.1723418,9.98742595 C18.5082164,10.7586935 20.1540819,10.7586935 21.4899565,9.98742595 C22.8258311,9.21615836 23.6487638,7.79079708 23.6487638,6.24826192 C23.6487638,4.70572676 22.8258311,3.28036549 21.4899565,2.5090979 C20.1540819,1.73783031 18.5082164,1.73783031 17.1723418,2.5090979 C15.8364672,3.28036549 15.0135345,4.70572676 15.0135345,6.24826192 L15.0135345,6.24826192 Z M21.394969,17.3358963 L23.6919399,17.3358963 C24.2714798,17.3931608 24.7947133,16.9874652 24.8836016,16.4119268 L24.8836016,15.064831 C24.8071733,14.4788586 24.2802022,14.0588092 23.6919399,14.1149558 L20.4450937,14.1149558 L20.2378482,13.4155022 L21.5935792,13.4155022 C21.8958123,13.4155022 22.1462339,13.0528226 22.1462339,12.6037907 L22.1462339,11.7402678 C22.1462339,11.2912358 21.8958123,10.9285562 21.5935792,10.9285562 L19.512489,10.9285562 L19.4606776,10.7558516 C19.4338124,10.6637425 19.3493791,10.6004175 19.2534321,10.6004175 C19.1574851,10.6004175 19.0730518,10.6637425 19.0461866,10.7558516 L18.9943752,10.9285562 L16.9046497,10.9285562 C16.6024167,10.9285562 16.351995,11.2912358 16.351995,11.7402678 L16.351995,12.6037907 C16.351995,13.0528226 16.6024167,13.4155022 16.9046497,13.4155022 L18.2690159,13.4155022 L18.0617704,14.1149558 L14.314081,14.1149558 C13.7258187,14.0588091 13.1988475,14.4788586 13.1224193,15.064831 L13.1224193,16.4119268 C13.1988475,16.9978992 13.7258187,17.4179486 14.314081,17.361802 L17.1118952,17.361802 L16.9650963,17.8712805 L3.93453533,38 L19.0030104,33.630574 L34.0714855,38 L21.9821645,19.2701877 L21.394969,17.3358963 Z M18.234475,22.0248258 L18.6576013,22.4134112 L18.6576013,27.0073531 L15.747529,25.910679 L18.234475,22.0248258 Z M17.7163613,27.6895362 L13.3555705,29.5720162 L15.2035095,26.7137553 L17.7163613,27.6895362 Z M19.8665334,26.7742019 L19.8665334,22.4565873 L19.9787913,22.3529645 L22.2066805,25.8070563 L19.8665334,26.7742019 Z M22.7506999,26.6101326 L24.4777458,29.2697832 L20.3069301,27.6377249 L22.7506999,26.6101326 Z M12.3797896,31.0918166 L18.648966,28.3803546 L18.648966,31.3076973 L10.7650017,33.5873978 L12.3797896,31.0918166 Z M19.8492629,31.4544962 L19.8492629,28.5012478 L25.3585392,30.6427846 L27.2410192,33.5528569 L19.8492629,31.4544962 Z" id="形状" fill="#FFFFFF"></path>
            </g>
        </g>
        <path d="M48.5298521,-4.61341425 C26.4384622,-4.61341425 8.52985214,13.2951958 8.52985214,35.3865857" id="椭圆形" stroke="#0473FF" stroke-width="2" transform="translate(28.529852, 15.386586) rotate(20.000000) translate(-28.529852, -15.386586) "></path>
        <path d="M85.0617851,30.2114327 C62.9703951,30.2114327 45.0617851,48.1200427 45.0617851,70.2114327" id="椭圆形" stroke="#0473FF" stroke-width="2" transform="translate(65.061785, 50.211433) rotate(-203.000000) translate(-65.061785, -50.211433) "></path>
        <path d="M28.0215306,50.3331131 C12.8271272,52.6280827 2.55919656,68.8806037 2.66178338,74.7577988" id="椭圆形" stroke="#0473FF" stroke-width="2" transform="translate(15.341276, 62.545456) rotate(-89.000000) translate(-15.341276, -62.545456) "></path>
        <g id="椭圆形" fill="black" fill-opacity="1">
            <use filter="url(#filter-2)" xlink:href="#path-1"></use>
        </g>
        <g id="三角形" transform="translate(40.500000, 91.500000) rotate(-180.000000) translate(-40.500000, -91.500000) ">
            <use fill="#FFFFFF" fill-rule="evenodd" xlink:href="#path-3"></use>
            <use fill="black" fill-opacity="1" filter="url(#filter-4)" xlink:href="#path-3"></use>
        </g>
    </g>
</svg>