<?xml version="1.0" encoding="UTF-8"?>
<svg width="80px" height="89px" viewBox="0 0 80 89" version="1.1" xmlns="http://www.w3.org/2000/svg" xmlns:xlink="http://www.w3.org/1999/xlink">
    <title>警察@2x</title>
    <g id="警察" stroke="none" stroke-width="1" fill="none" fill-rule="evenodd">
        <g id="常规点" transform="translate(1.052632, 1.047059)" fill-rule="nonzero">
            <g id="路径">
                <path d="M78,38.8722779 C78,51.8300805 71.5926171,63.3063748 61.8426313,70.3407428 C55.4355884,75.0607132 38.9997166,87 38.9997166,87 C38.9997166,87 22.3784029,74.9680695 15.8784123,70.2479862 C6.22148754,63.1214264 0,51.7374368 0,38.8722779 C0,17.3998418 17.4569361,0 38.9997166,0 C60.5426105,0 78,17.3998418 78,38.8722779 L78,38.8722779 Z" fill="#0054D3"></path>
                <path d="M6,38.9998322 C6,57.2251532 20.7745111,72 38.9997203,72 C57.2251532,72 72,57.2251532 72,38.9998322 C72,20.7745111 57.2251532,6 38.9997203,6 C20.7745111,6 6,20.7745111 6,38.9998322 L6,38.9998322 Z" fill="#FFFFFF"></path>
            </g>
            <g id="警察半身,公安" transform="translate(19.947368, 19.952941)">
                <rect id="矩形" fill="#000000" opacity="0" x="0" y="0" width="38" height="38"></rect>
                <path d="M21.9500614,24.9003307 L21.3946671,25.7316958 C21.280545,25.9017478 21.0903414,26 20.8887257,26 L19.1122248,26 C18.906805,26 18.7166014,25.8979688 18.6062834,25.7316958 L18.0508891,24.9041096 C17.9824158,24.8020784 17.9824158,24.6660368 18.0546932,24.5640057 L19.7589168,22.1303732 C19.880647,21.9565423 20.1393238,21.9565423 20.2610541,22.1303732 L21.9500614,24.5640057 C22.0147306,24.6622579 22.0185347,24.7982995 21.9500614,24.9003307 L21.9500614,24.9003307 Z" id="路径" fill="#0054D3"></path>
                <path d="M36,36.2669753 C34.9489026,36.5490093 27.7880698,37.8701159 20.601238,38 L18.398762,38 C11.2119302,37.8701159 4.05109736,36.5490093 3,36.2669753 C3.03342712,35.8624791 3.07056837,35.4468501 3.11142375,35.0200881 C3.38255487,32.2331468 3.82082161,29.0565533 4.54507597,26.0766414 C4.74935284,25.0153029 4.71592572,24.725847 5.5181767,24.0912705 C6.14214969,23.597711 10.1422622,23.4900927 12.1107485,23.4678269 C12.3855937,23.4641159 12.6604389,23.456694 12.9352842,23.445561 C13.4441193,23.4232952 13.9529544,23.3898964 14.4617895,23.3416538 C14.4060777,23.7016182 14.3540799,24.1172473 14.3206528,24.5699861 C14.3057963,24.8149103 14.2946539,25.0709675 14.2946539,25.3307357 C14.2946539,25.6832782 14.3132245,26.0469536 14.3540799,26.410629 C14.4060777,26.837391 14.4915025,27.267864 14.625211,27.6760711 C15.2454699,29.6169103 16.2371412,31.5391947 17.5816545,32.6858856 L18.2873382,28.0360355 C18.3319077,27.7465796 18.5807541,27.5313431 18.8741699,27.5313431 L20.1146877,27.5313431 C20.4081035,27.5313431 20.6569499,27.7465796 20.7015194,28.0360355 L21.4072032,32.6858856 C22.7517164,31.5391947 23.7433877,29.6131994 24.3636466,27.6760711 C24.4973551,27.267864 24.58278,26.841102 24.6347777,26.410629 C24.6793472,26.0469536 24.6942037,25.6832782 24.6942037,25.3307357 C24.6942037,25.0709675 24.6830613,24.8149103 24.6682048,24.5699861 C24.6384918,24.1172473 24.5864941,23.7016182 24.5270681,23.3416538 C25.0359032,23.3898964 25.5447383,23.4270062 26.0535734,23.445561 C26.3284187,23.456694 26.6032639,23.4641159 26.8781092,23.4678269 C28.8465954,23.4900927 32.8504221,23.6014219 33.4706809,24.0912705 C34.2729319,24.725847 34.2357907,25.0153029 34.4437817,26.0766414 C35.168036,29.0565533 35.6063028,32.2331468 35.8774339,35.0200881 C35.9294316,35.4468501 35.9665729,35.8624791 36,36.2669753 L36,36.2669753 Z M27.4500844,8.05615297 C27.8177828,7.91513597 30.0871131,6.9651267 30.1242544,4.9723338 C30.1688239,2.80141417 24.7462015,-0.163653838 19.6318514,0.00705095312 C19.5872819,0.00705095312 19.5427124,0.0107619269 19.5018571,0.0107619269 C19.4572876,0.00705095312 19.4127181,0.00705095312 19.3718627,0.00705095312 C14.2575127,-0.163653838 8.83489026,2.80141417 8.87945976,4.97604478 C8.92031514,6.9651267 11.1859313,7.91884695 11.5536297,8.05986395 C11.5833427,8.07099687 11.5981992,8.10068466 11.590771,8.12666147 C11.471919,8.60908806 11.5387732,10.0860556 11.5387732,10.0860556 C11.5387732,10.0860556 11.6576252,10.3384018 11.8841868,10.6427017 C11.8916151,10.6538346 11.8953292,10.6686785 11.8953292,10.6835224 C11.8953292,13.8786708 12.7347214,16.1349428 13.852673,17.7195286 C14.5249297,18.6732488 15.3011818,19.3820448 16.0551491,19.912714 C17.7190771,21.0742488 19.2938661,21.3525718 19.4944288,21.3748377 L19.5092853,21.3748377 C19.7098481,21.3525718 21.284637,21.0742488 22.948565,19.912714 C23.7062465,19.3857558 24.4787845,18.6732488 25.1510411,17.7195286 C26.2727068,16.1349428 27.1083849,13.8786708 27.1083849,10.6835224 C27.1083849,10.6686785 27.112099,10.6538346 27.1195273,10.6427017 C27.3460889,10.3384018 27.4649409,10.0860556 27.4649409,10.0860556 C27.4649409,10.0860556 27.5317952,8.60908806 27.4129432,8.12666147 C27.4055149,8.09697368 27.4203714,8.06728589 27.4500844,8.05615297 Z M16.7608329,5.16901541 C17.002251,5.15046054 17.4033765,5.13190567 17.863928,5.15788249 C17.9753517,5.16530444 18.0607766,5.07624107 18.0607766,4.96491186 L18.0607766,4.96120088 C18.0607766,4.17447445 18.6810355,3.5176321 19.5018571,3.39145899 C20.3226787,3.5176321 20.9429375,4.17447445 20.9429375,4.96120088 L20.9429375,4.96491186 C20.9429375,5.07624107 21.0283624,5.16159346 21.1397862,5.15788249 C21.6003376,5.13190567 22.0014631,5.15046054 22.2428813,5.16901541 C22.3060214,5.17272639 22.3208779,5.25807878 22.2614519,5.2840556 C21.1249297,5.77019316 20.5975239,6.12273566 20.5640968,6.1450015 C20.5640968,6.1450015 20.5603827,6.1450015 20.5603827,6.14871248 C20.2335397,6.41961356 19.8435566,6.51980985 19.5018571,6.54578667 C19.1601576,6.51980985 18.7701745,6.42332453 18.4433315,6.14871248 C18.4433315,6.14871248 18.4396173,6.14871248 18.4396173,6.1450015 C18.4061902,6.12273566 17.8787845,5.77019316 16.7422622,5.2840556 C16.6828362,5.25807878 16.6976927,5.17272639 16.7608329,5.16901541 L16.7608329,5.16901541 Z M26.0387169,8.31221016 L12.9649972,8.31221016 L12.9649972,7.12469857 L26.0387169,7.12469857 L26.0387169,8.31221016 Z" id="形状" fill="#0054D3"></path>
            </g>
        </g>
    </g>
</svg>