<?xml version="1.0" encoding="UTF-8"?>
<svg width="80px" height="89px" viewBox="0 0 80 89" version="1.1" xmlns="http://www.w3.org/2000/svg" xmlns:xlink="http://www.w3.org/1999/xlink">
    <title>警犬@2x</title>
    <g id="警犬" stroke="none" stroke-width="1" fill="none" fill-rule="evenodd">
        <g id="常规点" transform="translate(1.052632, 1.047059)" fill-rule="nonzero">
            <g id="路径">
                <path d="M78,38.8722779 C78,51.8300805 71.5926171,63.3063748 61.8426313,70.3407428 C55.4355884,75.0607132 38.9997166,87 38.9997166,87 C38.9997166,87 22.3784029,74.9680695 15.8784123,70.2479862 C6.22148754,63.1214264 0,51.7374368 0,38.8722779 C0,17.3998418 17.4569361,0 38.9997166,0 C60.5426105,0 78,17.3998418 78,38.8722779 L78,38.8722779 Z" fill="#683FFF"></path>
                <path d="M6,38.9998322 C6,57.2251532 20.7745111,72 38.9997203,72 C57.2251532,72 72,57.2251532 72,38.9998322 C72,20.7745111 57.2251532,6 38.9997203,6 C20.7745111,6 6,20.7745111 6,38.9998322 L6,38.9998322 Z" fill="#FFFFFF"></path>
            </g>
            <g id="警犬1" transform="translate(19.947368, 19.952941)">
                <rect id="矩形" fill="#000000" opacity="0" x="0" y="0" width="38" height="38"></rect>
                <path d="M0,19 C0,29.4934102 8.50658975,38 19,38 C29.4934102,38 38,29.4934102 38,19 C38,8.50658975 29.4934102,0 19,0 C8.50658975,0 0,8.50658975 0,19 Z" id="路径" fill="#683FFF"></path>
                <path d="M9.07374739,12.3346748 L7,12.6435077 L7,13.3323448 L7.8574989,14.7735649 L9.76999649,14.7735649 L12.591243,17.6788816 L13.3024921,19.2243169 L13.7974914,21.2463461 L14.2962408,23.4907858 L14.2962408,26.173692 L13.9374913,26.9743698 L13.356242,27.0671468 C13.0349636,27.1598974 12.814367,27.4596423 12.8174927,27.7991951 L12.8174927,28 L14.6749903,28 L14.6749903,27.9745816 L15.4312394,26.2537598 L16.1637385,23.1997458 L17.0324874,26.8841347 L17.0324874,26.9667443 L16.7012378,27.032832 C16.3912382,27.1065452 16.1662385,27.6504978 16.1662385,27.9593306 L16.1662385,27.9987291 L18.118736,27.9987291 L18.118736,27.0315611 L17.8349864,23.9394196 L17.9412362,21.7750476 L19.6012341,21.7750476 L22.6174803,21.3365812 L23.8337288,23.1717857 L25.8937262,25.4873967 L26.0037261,26.8879475 L26.0037261,26.9769117 L25.3324769,27.1154416 C25.0124773,27.1650074 24.8974775,27.6504978 24.8974775,27.9593306 L24.8974775,28 L26.7574751,28 L27.2062246,26.4075408 L27.2062246,24.3334039 L27.5687241,24.5558145 L28.3524732,25.4823131 L28.6237228,26.8854056 L28.6237228,26.971828 L28.0649735,27.1230671 C27.7124739,27.1853421 27.7737239,27.7686931 27.7912238,27.9606016 L27.7912238,27.9936454 L29.6537215,27.9936454 L29.7899713,26.9362423 L29.4324718,24.0499894 L28.1399734,22.8680364 L27.4399743,21.5640754 L27.3362244,21.1192544 L28.437473,22.42957 C29.3124719,23.242957 30.4437205,23.6204194 31.9637186,23.6204194 L32,23.6204194 L32,23.3115865 C32.0041249,22.6298603 31.5960217,22.0155375 30.9724698,21.7648803 C30.0897684,21.3780519 29.3689737,20.6879334 28.9362224,19.8152934 L27.7962238,17.5301843 C27.2173479,16.1752711 25.9041366,15.2976196 24.451228,15.294641 L16.6349879,15.1497564 L12.6574929,11.9140013 C12.576243,11.8186825 12.2299934,11.2963355 12.2299934,11.2963355 L10.5374955,10 L10.2324959,10 L10.5362456,11.3293794 C10.0799961,11.3941962 9.44749694,11.5212879 9.41124697,11.5212879 L9.39249699,11.5212879 L9.39249699,11.5428935 L9.07374739,12.3346748 Z" id="路径" fill="#FFFFFF"></path>
            </g>
        </g>
    </g>
</svg>