<?xml version="1.0" encoding="UTF-8"?>
<svg width="80px" height="89px" viewBox="0 0 80 89" version="1.1" xmlns="http://www.w3.org/2000/svg" xmlns:xlink="http://www.w3.org/1999/xlink">
    <title>车@2x</title>
    <g id="车" stroke="none" stroke-width="1" fill="none" fill-rule="evenodd">
        <g id="常规点" transform="translate(1.052632, 1.047059)" fill-rule="nonzero">
            <g id="路径">
                <path d="M78,38.8722779 C78,51.8300805 71.5926171,63.3063748 61.8426313,70.3407428 C55.4355884,75.0607132 38.9997166,87 38.9997166,87 C38.9997166,87 22.3784029,74.9680695 15.8784123,70.2479862 C6.22148754,63.1214264 0,51.7374368 0,38.8722779 C0,17.3998418 17.4569361,0 38.9997166,0 C60.5426105,0 78,17.3998418 78,38.8722779 L78,38.8722779 Z" fill="#F759AB"></path>
                <path d="M6,38.9998322 C6,57.2251532 20.7745111,72 38.9997203,72 C57.2251532,72 72,57.2251532 72,38.9998322 C72,20.7745111 57.2251532,6 38.9997203,6 C20.7745111,6 6,20.7745111 6,38.9998322 L6,38.9998322 Z" fill="#FFFFFF"></path>
            </g>
            <g id="买车02" transform="translate(18.947368, 18.952941)">
                <rect id="矩形" fill="#000000" opacity="0" x="0" y="0" width="40" height="40"></rect>
                <path d="M37.0609297,12.5708069 L33.689139,12.5708069 C33.5289413,12.5708069 33.380284,12.6331671 33.2481531,12.7241004 L31.7274013,6.90613134 C31.2413397,3.59648585 29.4077923,2 27.1552942,2 L12.8757079,2 C10.2898266,2 8.71756538,4.14541126 8.30163052,6.9021081 L6.77886815,12.7394134 C6.63821268,12.6382166 6.48300109,12.5707659 6.31130332,12.5707659 L2.93802483,12.5707659 C2.42047864,12.5707659 2,13.1072932 2,13.7655849 L2,14.7998851 C2,15.4602706 2.42047864,15.9937599 2.93802483,15.9937599 L4.21642947,16.2717737 C3.81203495,17.2724511 3.5821931,18.4172671 3.5821931,19.7510931 L3.10919987,26.6156373 C3.10919987,26.8170043 3.12126295,27.020383 3.1407649,27.2248291 C3.12275071,27.3474968 3.10919987,27.478293 3.10919987,27.6111419 L3.10919987,35.8729396 C3.10919987,37.0463698 3.85956344,38 4.78512308,38 L7.34450583,38 C8.26958295,38 9.01890105,37.0463698 9.01890105,35.8729396 L9.01890105,33.2185069 L31.0111763,33.2185069 L31.0111763,35.8729396 C31.0111763,37.0463698 31.7599314,38 32.6870593,38 L35.2444315,38 C36.1709964,38 36.9207568,37.0463698 36.9207568,35.8729396 L36.9207568,27.611224 C36.9207568,27.4783751 36.9067636,27.3475789 36.8893124,27.2249112 C36.9078091,27.0173861 36.9207568,26.8170864 36.9207568,26.6157193 L36.4488492,19.7511752 C36.4488492,18.4132028 36.2165546,17.2684689 35.8115971,16.2647125 L37.0609699,15.9938009 C37.5799637,15.9938009 38,15.4603116 38,14.8009935 L38,13.7635733 C38,13.1073342 37.5799235,12.5708069 37.0609297,12.5708069 Z M9.4297694,11.3514379 L10.5470515,7.57673914 L10.5625727,7.48675003 C10.6722261,6.72323831 10.9210069,6.58529877 11.2873625,5.99655153 L28.764589,5.99655153 C29.1334779,6.60266439 29.3632393,6.75595789 29.4658157,7.47554243 L30.6001068,11.351479 L31.0149962,13.4539073 C30.9219496,14.9922614 29.4653332,16.2085925 28.2549241,16.2085925 L11.7748315,16.2085925 C10.563015,16.2085925 9.10736354,14.9923025 9.01431704,13.4539073 L9.4297694,11.3514379 Z M9.7837403,28.1846994 C8.28450093,28.1846994 7.06862327,26.9438184 7.06862327,25.4126896 C7.06862327,23.8816019 8.28450097,22.6407209 9.7837403,22.6407209 C11.2834622,22.6407209 12.4987367,23.8816019 12.4987367,25.4126896 C12.4987367,26.9438184 11.2834219,28.1846994 9.7837403,28.1846994 Z M25.4107321,26.924359 C25.4107321,27.4548515 25.0728855,27.8841472 24.6553825,27.8841472 L15.1512464,27.8841472 C14.7327381,27.8841472 14.3948513,27.4548515 14.3948513,26.924359 L14.3948513,24.2290781 C14.3948513,23.6985857 14.7326979,23.2703163 15.1512464,23.2703163 L24.6553825,23.2703163 C25.0728855,23.2703163 25.4107321,23.6985857 25.4107321,24.2290781 L25.4107321,26.924359 Z M30.0194707,28.1846994 C28.5203118,28.1846994 27.3044743,26.9438184 27.3044743,25.4126896 C27.3044743,23.8816019 28.5202715,22.6407209 30.0194707,22.6407209 C31.5191926,22.6407209 32.7345877,23.8816019 32.7345877,25.4126896 C32.7345877,26.9438184 31.5191524,28.1846994 30.0194707,28.1846994 Z" id="形状" fill="#F759AB"></path>
            </g>
        </g>
    </g>
</svg>