<?xml version="1.0" standalone="no"?><!DOCTYPE svg PUBLIC "-//W3C//DTD SVG 1.1//EN" "http://www.w3.org/Graphics/SVG/1.1/DTD/svg11.dtd"><svg t="1683595909036" class="icon" viewBox="0 0 1024 1024" version="1.1" xmlns="http://www.w3.org/2000/svg" p-id="3929" xmlns:xlink="http://www.w3.org/1999/xlink" width="18" height="18"><path d="M947.649123 354.26807l0.718596-1.437193-3.413333-6.826666H937.94807l-6.826666-5.389474 3.413333-1.616842-3.413333-5.209825h-8.802808l-7.006315-5.209824 3.592982-6.826667-3.592982-3.592983h-3.413334v3.592983h-7.006315l-10.41965-7.006316-7.006315-15.629474 7.006315-7.006315-1.796491-3.413334-3.413333 1.616842-3.592983-3.413333v-3.592982l5.209825-3.413334v-8.623158l-1.616842-1.796491-3.592983 5.209825-3.413333-3.413334v-3.592982l5.209825 3.592982 1.796491-1.796491-3.592983-1.796491 1.796492-12.21614-5.209825-8.623158-3.413333 5.209824 3.413333 10.419649-5.209824 8.802807-1.796492 5.209825h-6.826666l1.796491-7.006316-10.419649 1.796491-3.592983-5.389473-3.413333 5.389473-7.006316-15.809122-8.623158 7.006315-8.802807-1.796491-5.209824 1.796491-10.419649 10.41965h-7.006316l-1.616842 3.592982 10.419649 5.209825 5.209824 10.419649-12.21614 15.629473-20.839298-3.413333v-5.209825l-7.006316-1.796491v-3.413333l-7.006316-5.209825 3.413334-7.006315-1.437193-10.41965-7.006316 3.413334-1.796491-1.796491 3.592982-7.006316-12.21614 10.599298-7.006316 19.042807-3.413333-3.413333v-10.419649l3.413333-3.592983-3.413333-1.616842-1.796492-5.209825h-5.209824l-7.006316 3.413334-5.928421 5.928421-3.592983 1.077895h-7.904561l-7.006316 5.209824v13.832983l5.389474 7.006315-1.796491 3.592983-7.006316-1.796491 1.796491-7.006316-3.592982 3.413333-6.826667-1.616842-7.006316 8.623158-8.802807 3.592982-5.030175-3.592982v-3.413333l-5.209825 7.006315-15.629473 3.413334-8.802808-24.432281-15.629473-5.209825-12.216141-12.21614-5.209824-10.419649-3.413333 5.209825-10.41965-13.832983-10.419649-1.796491-8.623158-15.629474 3.413334-8.802807 6.826666-3.233684-1.616842-7.006316 13.832983-26.049123-3.413334-3.592982v-6.826667l3.413334-5.389473-5.209825-5.209825v-8.623158l-3.413333-1.796491-1.796491-5.209825-15.629474-3.413333-13.832982-15.809123-5.209825 1.796491-3.592983-3.233684v-5.209824l1.796492-3.592983h7.006316v-5.209824l-12.216141-3.413334-1.796491-1.796491 3.592982-1.796491-8.802807-5.209825-5.209824 1.796491-17.425965-17.425964-1.796491-15.629474 7.006315-8.802807 12.216141-25.869474 3.592982-1.796491v-5.209825l-3.592982-3.413333-17.425965-1.796491-26.049123 1.796491v-3.592982h-3.413333l-1.616842-5.209825-12.216141 1.796491-3.592982 3.413334-3.413333-5.209825-5.209825-1.796491-3.413333-6.826667-8.802807-3.592982V10.419649L442.475789 0l-24.43228 14.012632-0.718597 1.077894-1.077894 0.538948-0.17965 1.077894-1.437193 2.515088v8.623158l-8.623157 7.006316-3.413334 8.623158h-10.419649l-3.592982 10.419649 1.796491 15.629474h-10.419649l-1.796491 3.413333 0.359298 4.850526-0.359298 3.952281 1.437192 3.413333 0.359299 3.592983 7.006316 15.629473 6.826666 3.413334 3.592983 10.419649h15.449824l8.802807 15.809123-5.389473 10.24-10.24 10.419649v5.209824l-12.216141 14.012632-15.629473 10.419649 7.006315 34.85193-8.802807 12.21614h-6.826666v6.826667l-5.209825 6.826667v3.413333l6.826667 7.006316-1.616842 8.802807 6.826666 12.21614-3.413333 6.826667 3.413333 3.592982-8.623158 13.832983-3.413333-1.616843-1.796491 6.826667 3.413333 3.592983v39.882105l-3.413333 1.796491 7.006316 6.826667-1.796492 3.592982 3.413334 12.216141v19.042807l5.209824 7.006315-3.413333 15.629474 5.209825 17.246316v10.419649l-8.623158 1.796491-1.257544 1.616842-0.538948 0.179649-10.419649-10.419649-8.802807 1.616842-8.623158-3.413333-1.796491 3.413333-10.419649-8.623157-8.802807-1.796492-39.882105-1.796491-1.616842 3.592983-10.41965-5.209825h-7.006315l-7.006316 5.209825-27.845614 1.796491-8.802807 10.419649h-3.413333l-1.616843-3.592983-6.826666 3.592983-1.796491 5.209824 8.623157 1.796492-5.209824 15.629473 5.209824 5.209825-6.826666 3.413333-1.796491-5.209824h-3.592983l-1.616842 12.21614 8.623158 1.796491 5.209824-5.209824v12.21614l5.030176 5.209825 7.006316-3.592983 5.209824 7.006316 8.802807 3.413333-7.006316 7.006316-1.437193 3.413333-12.575438 15.629474v5.209825l10.599298 3.413333-10.599298 10.599298 10.599298 8.623158-1.796491 17.425965-15.449825 12.21614-7.006315-1.796491-3.592983 5.209825-3.413333-5.209825-1.796491 1.796491-5.209825 12.216141-1.616842 22.45614-7.006316 3.413333-3.592982-8.623157-3.413334-1.796492-12.21614 10.419649-3.413333 15.809123-12.216141 6.826667-7.006316 8.802807-7.006315 12.21614-8.443509 8.623158-1.796491 10.419649-3.413334-1.616842-10.419649 6.826667-19.222456 1.796491-3.413333 10.24-8.802807 7.006316v3.413333l5.209824 1.796491-3.413333 5.209825 1.616842 5.209825 17.425965 3.592982 10.599298-1.796491v5.209824l-5.389473 5.209825 1.796491 5.209824-3.413334 7.006316 13.832983 14.012632v26.049123l1.796491 3.413333 7.006316 1.796491 8.443509-3.592982 1.796491 3.592982-6.826667 13.832983-1.796491 9.701052-5.928421 3.413334-2.694737 0.718596-1.257544 1.437193-0.538947 0.359298-5.209825 7.006316 1.796492 3.413333 7.006315 8.802807 20.659649 10.41965 5.209825-1.796492 5.209825 5.209825 1.796491 14.012631 12.21614-5.209824 7.006316 1.616842 8.623158-5.209825-1.796491-6.826666 31.438596-55.870877 10.24-10.24 15.629474-5.209825h10.599298l24.252632 19.761404 8.802807 9.701052 8.623158 22.63579 5.209824 3.413333 3.592983 1.796491-3.592983 7.006316h-3.413333v8.623158h5.209824l8.623158-7.006316 12.216141-1.616842 8.623157 5.209825 5.209825-1.796492 8.623158 7.006316 8.802807 19.222456 15.629474 20.659649 1.796491 8.623158-3.592983 8.802807 5.389474 1.796492 3.413333 6.826666v8.802807l19.222457 7.006316v24.252632l12.036491 20.839298-1.616842 13.832982 15.449824 5.209825 12.216141-1.616842 40.061754-12.216141 10.419649-8.802807h8.802807l6.826667-5.209824 17.246316 7.006316 12.21614 1.796491 15.629474 10.419649 17.425964 3.413333 1.796492 5.209825h7.006316l5.209824 5.209824v-3.413333h10.419649v7.006316h5.209825l6.826666 7.006316 5.209825-1.796492 3.592982 5.209825h3.413334l3.413333-3.413333-1.616842-14.012632 3.413333-10.419649-5.209824-14.012632 7.006316 3.592983 1.616842-7.006316 8.802807 3.413333 1.796491-1.616842-10.599298-12.036491-3.413334-15.629474 1.796492-3.592982-1.796492-5.209825-5.209824-1.796491v-10.419649l-10.419649-5.209825-3.413334-10.419649-5.209824-5.209824v-7.006316l1.796491-12.21614 5.030175-10.41965-1.616842-6.826666h3.413334V862.315789l8.623158-1.616842 5.209824-7.006315 1.796491-24.432281 12.216141-8.623158 3.413333-5.389474v-12.036491l10.419649-7.006316 7.006316-8.623158-1.616842-15.629473 3.413333-22.63579-7.006316-14.012631 3.592983-34.85193-1.796491-11.856842-5.209825-7.006316 5.209825-7.006316v-8.623158l15.629473 1.616842 3.592983 3.592983 3.413333-1.796491v-10.41965l10.419649-7.006315-3.413333-5.209825-1.796491-31.438596-7.006316-3.413334 5.209824-3.413333-3.413333-3.592983-3.413333-12.036491h6.826666l22.63579-10.419649 33.055438-8.623158 26.049123-19.222456 39.882106-12.21614h14.012631l5.209825-5.209825h3.413333l-17.425965-26.049123-3.413333-1.616842-1.796491 5.030176-5.209825 3.592982-1.796491-1.796491-3.233684-6.826667v-5.209824l3.233684-3.592983-13.653334-26.049123 3.413334-3.413333v-5.209824l1.796491-1.796492 6.647018 5.209825 10.599298-7.006316 12.21614-3.413333 6.826667-8.802807 8.802807-5.209825 5.209824-8.623158-1.796491-17.425965 5.209825-3.413333 7.006315 3.413333 1.796492-1.616842 1.616842 5.209825 8.802807 3.233684 10.419649-6.826667 13.832982 13.832983 3.592983-3.413333v-6.826667l-3.592983-5.209825h-3.413333v-3.413333l13.832983-7.006316 1.796491 3.413333 3.413333-1.616842 1.796491-5.209824 3.413334 5.209824 3.413333-1.796491-1.616842-5.209824 8.623158-10.41965-5.209825-8.802807 3.592983-10.419649h3.413333l1.796491 3.413334 3.413334-1.616842-1.796492-3.592983 12.216141 1.796491V377.263158l7.006315 1.796491 1.796492-3.592982h7.006316l1.616842-1.616842-3.413334-7.006316 15.629474-7.006316 1.077895-2.155789 2.335438-1.257544-0.718596-2.15579z" fill="#ffffff" fill-opacity=".2" p-id="3930"></path><path d="M858.004211 252.047719l5.209824-1.796491v-7.006316l-3.413333-3.413333h-5.209825l-5.209824 5.209825 6.826666 7.006315h1.796492z" fill="#ffffff" fill-opacity=".2" p-id="3931"></path><path d="M947.649123 354.26807l0.718596-1.437193-3.413333-6.826666H937.94807l-6.826666-5.389474 3.413333-1.616842-3.413333-5.209825h-8.802808l-7.006315-5.209824 3.592982-6.826667-3.592982-3.592983h-3.413334v3.592983h-7.006315l-10.41965-7.006316-7.006315-15.629474 7.006315-7.006315-1.796491-3.413334-3.413333 1.616842-3.592983-3.413333v-3.592982l5.209825-3.413334v-8.623158l-1.616842-1.796491-3.592983 5.209825-3.413333-3.413334v-3.592982l5.209825 3.592982 1.796491-1.796491-3.592983-1.796491 1.796492-12.21614-5.209825-8.623158-3.413333 5.209824 3.413333 10.419649-5.209824 8.802807-1.796492 5.209825h-6.826666l1.796491-7.006316-10.419649 1.796491-3.592983-5.389473-3.413333 5.389473-7.006316-15.809122-8.623158 7.006315-8.802807-1.796491-5.209824 1.796491-10.419649 10.41965h-7.006316l-1.616842 3.592982 10.419649 5.209825 5.209824 10.419649-12.21614 15.629473-20.839298-3.413333v-5.209825l-7.006316-1.796491v-3.413333l-7.006316-5.209825 3.413334-7.006315-1.437193-10.41965-7.006316 3.413334-1.796491-1.796491 3.592982-7.006316-12.21614 10.599298-7.006316 19.042807-3.413333-3.413333v-10.419649l3.413333-3.592983-3.413333-1.616842-1.796492-5.209825h-5.209824l-7.006316 3.413334-5.928421 5.928421-3.592983 1.077895h-7.904561l-7.006316 5.209824v13.832983l5.389474 7.006315-1.796491 3.592983-7.006316-1.796491 1.796491-7.006316-3.592982 3.413333-6.826667-1.616842-7.006316 8.623158-8.802807 3.592982-5.030175-3.592982v-3.413333l-5.209825 7.006315-15.629473 3.413334-8.802808-24.432281-15.629473-5.209825-12.216141-12.21614-5.209824-10.419649-3.413333 5.209825-10.41965-13.832983-10.419649-1.796491-8.623158-15.629474 3.413334-8.802807 6.826666-3.233684-1.616842-7.006316 13.832983-26.049123-3.413334-3.592982v-6.826667l3.413334-5.389473-5.209825-5.209825v-8.623158l-3.413333-1.796491-1.796491-5.209825-15.629474-3.413333-13.832982-15.809123-5.209825 1.796491-3.592983-3.233684v-5.209824l1.796492-3.592983h7.006316v-5.209824l-12.216141-3.413334-1.796491-1.796491 3.592982-1.796491-8.802807-5.209825-5.209824 1.796491-17.425965-17.425964-1.796491-15.629474 7.006315-8.802807 12.216141-25.869474 3.592982-1.796491v-5.209825l-3.592982-3.413333-17.425965-1.796491-26.049123 1.796491v-3.592982h-3.413333l-1.616842-5.209825-12.216141 1.796491-3.592982 3.413334-3.413333-5.209825-5.209825-1.796491-3.413333-6.826667-8.802807-3.592982V10.419649L442.475789 0l-24.43228 14.012632-0.718597 1.077894-1.077894 0.538948-0.17965 1.077894-1.437193 2.515088v8.623158l-8.623157 7.006316-3.413334 8.623158h-10.419649l-3.592982 10.419649 1.796491 15.629474h-10.419649l-1.796491 3.413333 0.359298 4.850526-0.359298 3.952281 1.437192 3.413333 0.359299 3.592983 7.006316 15.629473 6.826666 3.413334 3.592983 10.419649h15.449824l8.802807 15.809123-5.389473 10.24-10.24 10.419649v5.209824l-12.216141 14.012632-15.629473 10.419649 7.006315 34.85193-8.802807 12.21614h-6.826666v6.826667l-5.209825 6.826667v3.413333l6.826667 7.006316-1.616842 8.802807 6.826666 12.21614-3.413333 6.826667 3.413333 3.592982-8.623158 13.832983-3.413333-1.616843-1.796491 6.826667 3.413333 3.592983v39.882105l-3.413333 1.796491 7.006316 6.826667-1.796492 3.592982 3.413334 12.216141v19.042807l5.209824 7.006315-3.413333 15.629474 5.209825 17.246316v10.419649l-8.623158 1.796491-1.257544 1.616842-0.538948 0.179649-10.419649-10.419649-8.802807 1.616842-8.623158-3.413333-1.796491 3.413333-10.419649-8.623157-8.802807-1.796492-39.882105-1.796491-1.616842 3.592983-10.41965-5.209825h-7.006315l-7.006316 5.209825-27.845614 1.796491-8.802807 10.419649h-3.413333l-1.616843-3.592983-6.826666 3.592983-1.796491 5.209824 8.623157 1.796492-5.209824 15.629473 5.209824 5.209825-6.826666 3.413333-1.796491-5.209824h-3.592983l-1.616842 12.21614 8.623158 1.796491 5.209824-5.209824v12.21614l5.030176 5.209825 7.006316-3.592983 5.209824 7.006316 8.802807 3.413333-7.006316 7.006316-1.437193 3.413333-12.575438 15.629474v5.209825l10.599298 3.413333-10.599298 10.599298 10.599298 8.623158-1.796491 17.425965-15.449825 12.21614-7.006315-1.796491-3.592983 5.209825-3.413333-5.209825-1.796491 1.796491-5.209825 12.216141-1.616842 22.45614-7.006316 3.413333-3.592982-8.623157-3.413334-1.796492-12.21614 10.419649-3.413333 15.809123-12.216141 6.826667-7.006316 8.802807-7.006315 12.21614-8.443509 8.623158-1.796491 10.419649-3.413334-1.616842-10.419649 6.826667-19.222456 1.796491-3.413333 10.24-8.802807 7.006316v3.413333l5.209824 1.796491-3.413333 5.209825 1.616842 5.209825 17.425965 3.592982 10.599298-1.796491v5.209824l-5.389473 5.209825 1.796491 5.209824-3.413334 7.006316 13.832983 14.012632v26.049123l1.796491 3.413333 7.006316 1.796491 8.443509-3.592982 1.796491 3.592982-6.826667 13.832983-1.796491 9.701052-5.928421 3.413334-2.694737 0.718596-1.257544 1.437193-0.538947 0.359298-5.209825 7.006316 1.796492 3.413333 7.006315 8.802807 20.659649 10.41965 5.209825-1.796492 5.209825 5.209825 1.796491 14.012631 12.21614-5.209824 7.006316 1.616842 8.623158-5.209825-1.796491-6.826666 31.438596-55.870877 10.24-10.24 15.629474-5.209825h10.599298l24.252632 19.761404 8.802807 9.701052 8.623158 22.63579 5.209824 3.413333 3.592983 1.796491-3.592983 7.006316h-3.413333v8.623158h5.209824l8.623158-7.006316 12.216141-1.616842 8.623157 5.209825 5.209825-1.796492 8.623158 7.006316 8.802807 19.222456 15.629474 20.659649 1.796491 8.623158-3.592983 8.802807 5.389474 1.796492 3.413333 6.826666v8.802807l19.222457 7.006316v24.252632l12.036491 20.839298-1.616842 13.832982 15.449824 5.209825 12.216141-1.616842 40.061754-12.216141 10.419649-8.802807h8.802807l6.826667-5.209824 17.246316 7.006316 12.21614 1.796491 15.629474 10.419649 17.425964 3.413333 1.796492 5.209825h7.006316l5.209824 5.209824v-3.413333h10.419649v7.006316h5.209825l6.826666 7.006316 5.209825-1.796492 3.592982 5.209825h3.413334l3.413333-3.413333-1.616842-14.012632 3.413333-10.419649-5.209824-14.012632 7.006316 3.592983 1.616842-7.006316 8.802807 3.413333 1.796491-1.616842-10.599298-12.036491-3.413334-15.629474 1.796492-3.592982-1.796492-5.209825-5.209824-1.796491v-10.419649l-10.419649-5.209825-3.413334-10.419649-5.209824-5.209824v-7.006316l1.796491-12.21614 5.030175-10.41965-1.616842-6.826666h3.413334V862.315789l8.623158-1.616842 5.209824-7.006315 1.796491-24.432281 12.216141-8.623158 3.413333-5.389474v-12.036491l10.419649-7.006316 7.006316-8.623158-1.616842-15.629473 3.413333-22.63579-7.006316-14.012631 3.592983-34.85193-1.796491-11.856842-5.209825-7.006316 5.209825-7.006316v-8.623158l15.629473 1.616842 3.592983 3.592983 3.413333-1.796491v-10.41965l10.419649-7.006315-3.413333-5.209825-1.796491-31.438596-7.006316-3.413334 5.209824-3.413333-3.413333-3.592983-3.413333-12.036491h6.826666l22.63579-10.419649 33.055438-8.623158 26.049123-19.222456 39.882106-12.21614h14.012631l5.209825-5.209825h3.413333l-17.425965-26.049123-3.413333-1.616842-1.796491 5.030176-5.209825 3.592982-1.796491-1.796491-3.233684-6.826667v-5.209824l3.233684-3.592983-13.653334-26.049123 3.413334-3.413333v-5.209824l1.796491-1.796492 6.647018 5.209825 10.599298-7.006316 12.21614-3.413333 6.826667-8.802807 8.802807-5.209825 5.209824-8.623158-1.796491-17.425965 5.209825-3.413333 7.006315 3.413333 1.796492-1.616842 1.616842 5.209825 8.802807 3.233684 10.419649-6.826667 13.832982 13.832983 3.592983-3.413333v-6.826667l-3.592983-5.209825h-3.413333v-3.413333l13.832983-7.006316 1.796491 3.413333 3.413333-1.616842 1.796491-5.209824 3.413334 5.209824 3.413333-1.796491-1.616842-5.209824 8.623158-10.41965-5.209825-8.802807 3.592983-10.419649h3.413333l1.796491 3.413334 3.413334-1.616842-1.796492-3.592983 12.216141 1.796491V377.263158l7.006315 1.796491 1.796492-3.592982h7.006316l1.616842-1.616842-3.413334-7.006316 15.629474-7.006316 1.077895-2.155789 2.335438-1.257544-0.718596-2.15579z" fill="#ffffff" fill-opacity=".2" p-id="3932"></path><path d="M858.004211 252.047719l5.209824-1.796491v-7.006316l-3.413333-3.413333h-5.209825l-5.209824 5.209825 6.826666 7.006315h1.796492z" fill="#ffffff" fill-opacity=".2" p-id="3933"></path><path d="M947.649123 354.26807l0.718596-1.437193-3.413333-6.826666H937.94807l-6.826666-5.389474 3.413333-1.616842-3.413333-5.209825h-8.802808l-7.006315-5.209824 3.592982-6.826667-3.592982-3.592983h-3.413334v3.592983h-7.006315l-10.41965-7.006316-7.006315-15.629474 7.006315-7.006315-1.796491-3.413334-3.413333 1.616842-3.592983-3.413333v-3.592982l5.209825-3.413334v-8.623158l-1.616842-1.796491-3.592983 5.209825-3.413333-3.413334v-3.592982l5.209825 3.592982 1.796491-1.796491-3.592983-1.796491 1.796492-12.21614-5.209825-8.623158-3.413333 5.209824 3.413333 10.419649-5.209824 8.802807-1.796492 5.209825h-6.826666l1.796491-7.006316-10.419649 1.796491-3.592983-5.389473-3.413333 5.389473-7.006316-15.809122-8.623158 7.006315-8.802807-1.796491-5.209824 1.796491-10.419649 10.41965h-7.006316l-1.616842 3.592982 10.419649 5.209825 5.209824 10.419649-12.21614 15.629473-20.839298-3.413333v-5.209825l-7.006316-1.796491v-3.413333l-7.006316-5.209825 3.413334-7.006315-1.437193-10.41965-7.006316 3.413334-1.796491-1.796491 3.592982-7.006316-12.21614 10.599298-7.006316 19.042807-3.413333-3.413333v-10.419649l3.413333-3.592983-3.413333-1.616842-1.796492-5.209825h-5.209824l-7.006316 3.413334-5.928421 5.928421-3.592983 1.077895h-7.904561l-7.006316 5.209824v13.832983l5.389474 7.006315-1.796491 3.592983-7.006316-1.796491 1.796491-7.006316-3.592982 3.413333-6.826667-1.616842-7.006316 8.623158-8.802807 3.592982-5.030175-3.592982v-3.413333l-5.209825 7.006315-15.629473 3.413334-8.802808-24.432281-15.629473-5.209825-12.216141-12.21614-5.209824-10.419649-3.413333 5.209825-10.41965-13.832983-10.419649-1.796491-8.623158-15.629474 3.413334-8.802807 6.826666-3.233684-1.616842-7.006316 13.832983-26.049123-3.413334-3.592982v-6.826667l3.413334-5.389473-5.209825-5.209825v-8.623158l-3.413333-1.796491-1.796491-5.209825-15.629474-3.413333-13.832982-15.809123-5.209825 1.796491-3.592983-3.233684v-5.209824l1.796492-3.592983h7.006316v-5.209824l-12.216141-3.413334-1.796491-1.796491 3.592982-1.796491-8.802807-5.209825-5.209824 1.796491-17.425965-17.425964-1.796491-15.629474 7.006315-8.802807 12.216141-25.869474 3.592982-1.796491v-5.209825l-3.592982-3.413333-17.425965-1.796491-26.049123 1.796491v-3.592982h-3.413333l-1.616842-5.209825-12.216141 1.796491-3.592982 3.413334-3.413333-5.209825-5.209825-1.796491-3.413333-6.826667-8.802807-3.592982V10.419649L442.475789 0l-24.43228 14.012632-0.718597 1.077894-1.077894 0.538948-0.17965 1.077894-1.437193 2.515088v8.623158l-8.623157 7.006316-3.413334 8.623158h-10.419649l-3.592982 10.419649 1.796491 15.629474h-10.419649l-1.796491 3.413333 0.359298 4.850526-0.359298 3.952281 1.437192 3.413333 0.359299 3.592983 7.006316 15.629473 6.826666 3.413334 3.592983 10.419649h15.449824l8.802807 15.809123-5.389473 10.24-10.24 10.419649v5.209824l-12.216141 14.012632-15.629473 10.419649 7.006315 34.85193-8.802807 12.21614h-6.826666v6.826667l-5.209825 6.826667v3.413333l6.826667 7.006316-1.616842 8.802807 6.826666 12.21614-3.413333 6.826667 3.413333 3.592982-8.623158 13.832983-3.413333-1.616843-1.796491 6.826667 3.413333 3.592983v39.882105l-3.413333 1.796491 7.006316 6.826667-1.796492 3.592982 3.413334 12.216141v19.042807l5.209824 7.006315-3.413333 15.629474 5.209825 17.246316v10.419649l-8.623158 1.796491-1.257544 1.616842-0.538948 0.179649-10.419649-10.419649-8.802807 1.616842-8.623158-3.413333-1.796491 3.413333-10.419649-8.623157-8.802807-1.796492-39.882105-1.796491-1.616842 3.592983-10.41965-5.209825h-7.006315l-7.006316 5.209825-27.845614 1.796491-8.802807 10.419649h-3.413333l-1.616843-3.592983-6.826666 3.592983-1.796491 5.209824 8.623157 1.796492-5.209824 15.629473 5.209824 5.209825-6.826666 3.413333-1.796491-5.209824h-3.592983l-1.616842 12.21614 8.623158 1.796491 5.209824-5.209824v12.21614l5.030176 5.209825 7.006316-3.592983 5.209824 7.006316 8.802807 3.413333-7.006316 7.006316-1.437193 3.413333-12.575438 15.629474v5.209825l10.599298 3.413333-10.599298 10.599298 10.599298 8.623158-1.796491 17.425965-15.449825 12.21614-7.006315-1.796491-3.592983 5.209825-3.413333-5.209825-1.796491 1.796491-5.209825 12.216141-1.616842 22.45614-7.006316 3.413333-3.592982-8.623157-3.413334-1.796492-12.21614 10.419649-3.413333 15.809123-12.216141 6.826667-7.006316 8.802807-7.006315 12.21614-8.443509 8.623158-1.796491 10.419649-3.413334-1.616842-10.419649 6.826667-19.222456 1.796491-3.413333 10.24-8.802807 7.006316v3.413333l5.209824 1.796491-3.413333 5.209825 1.616842 5.209825 17.425965 3.592982 10.599298-1.796491v5.209824l-5.389473 5.209825 1.796491 5.209824-3.413334 7.006316 13.832983 14.012632v26.049123l1.796491 3.413333 7.006316 1.796491 8.443509-3.592982 1.796491 3.592982-6.826667 13.832983-1.796491 9.701052-5.928421 3.413334-2.694737 0.718596-1.257544 1.437193-0.538947 0.359298-5.209825 7.006316 1.796492 3.413333 7.006315 8.802807 20.659649 10.41965 5.209825-1.796492 5.209825 5.209825 1.796491 14.012631 12.21614-5.209824 7.006316 1.616842 8.623158-5.209825-1.796491-6.826666 31.438596-55.870877 10.24-10.24 15.629474-5.209825h10.599298l24.252632 19.761404 8.802807 9.701052 8.623158 22.63579 5.209824 3.413333 3.592983 1.796491-3.592983 7.006316h-3.413333v8.623158h5.209824l8.623158-7.006316 12.216141-1.616842 8.623157 5.209825 5.209825-1.796492 8.623158 7.006316 8.802807 19.222456 15.629474 20.659649 1.796491 8.623158-3.592983 8.802807 5.389474 1.796492 3.413333 6.826666v8.802807l19.222457 7.006316v24.252632l12.036491 20.839298-1.616842 13.832982 15.449824 5.209825 12.216141-1.616842 40.061754-12.216141 10.419649-8.802807h8.802807l6.826667-5.209824 17.246316 7.006316 12.21614 1.796491 15.629474 10.419649 17.425964 3.413333 1.796492 5.209825h7.006316l5.209824 5.209824v-3.413333h10.419649v7.006316h5.209825l6.826666 7.006316 5.209825-1.796492 3.592982 5.209825h3.413334l3.413333-3.413333-1.616842-14.012632 3.413333-10.419649-5.209824-14.012632 7.006316 3.592983 1.616842-7.006316 8.802807 3.413333 1.796491-1.616842-10.599298-12.036491-3.413334-15.629474 1.796492-3.592982-1.796492-5.209825-5.209824-1.796491v-10.419649l-10.419649-5.209825-3.413334-10.419649-5.209824-5.209824v-7.006316l1.796491-12.21614 5.030175-10.41965-1.616842-6.826666h3.413334V862.315789l8.623158-1.616842 5.209824-7.006315 1.796491-24.432281 12.216141-8.623158 3.413333-5.389474v-12.036491l10.419649-7.006316 7.006316-8.623158-1.616842-15.629473 3.413333-22.63579-7.006316-14.012631 3.592983-34.85193-1.796491-11.856842-5.209825-7.006316 5.209825-7.006316v-8.623158l15.629473 1.616842 3.592983 3.592983 3.413333-1.796491v-10.41965l10.419649-7.006315-3.413333-5.209825-1.796491-31.438596-7.006316-3.413334 5.209824-3.413333-3.413333-3.592983-3.413333-12.036491h6.826666l22.63579-10.419649 33.055438-8.623158 26.049123-19.222456 39.882106-12.21614h14.012631l5.209825-5.209825h3.413333l-17.425965-26.049123-3.413333-1.616842-1.796491 5.030176-5.209825 3.592982-1.796491-1.796491-3.233684-6.826667v-5.209824l3.233684-3.592983-13.653334-26.049123 3.413334-3.413333v-5.209824l1.796491-1.796492 6.647018 5.209825 10.599298-7.006316 12.21614-3.413333 6.826667-8.802807 8.802807-5.209825 5.209824-8.623158-1.796491-17.425965 5.209825-3.413333 7.006315 3.413333 1.796492-1.616842 1.616842 5.209825 8.802807 3.233684 10.419649-6.826667 13.832982 13.832983 3.592983-3.413333v-6.826667l-3.592983-5.209825h-3.413333v-3.413333l13.832983-7.006316 1.796491 3.413333 3.413333-1.616842 1.796491-5.209824 3.413334 5.209824 3.413333-1.796491-1.616842-5.209824 8.623158-10.41965-5.209825-8.802807 3.592983-10.419649h3.413333l1.796491 3.413334 3.413334-1.616842-1.796492-3.592983 12.216141 1.796491V377.263158l7.006315 1.796491 1.796492-3.592982h7.006316l1.616842-1.616842-3.413334-7.006316 15.629474-7.006316 1.077895-2.155789 2.335438-1.257544-0.718596-2.15579z" fill="#ffffff" fill-opacity=".2" p-id="3934"></path><path d="M858.004211 252.047719l5.209824-1.796491v-7.006316l-3.413333-3.413333h-5.209825l-5.209824 5.209825 6.826666 7.006315h1.796492z" fill="#ffffff" fill-opacity=".2" p-id="3935"></path><path d="M947.649123 354.26807l0.718596-1.437193-3.413333-6.826666H937.94807l-6.826666-5.389474 3.413333-1.616842-3.413333-5.209825h-8.802808l-7.006315-5.209824 3.592982-6.826667-3.592982-3.592983h-3.413334v3.592983h-7.006315l-10.41965-7.006316-7.006315-15.629474 7.006315-7.006315-1.796491-3.413334-3.413333 1.616842-3.592983-3.413333v-3.592982l5.209825-3.413334v-8.623158l-1.616842-1.796491-3.592983 5.209825-3.413333-3.413334v-3.592982l5.209825 3.592982 1.796491-1.796491-3.592983-1.796491 1.796492-12.21614-5.209825-8.623158-3.413333 5.209824 3.413333 10.419649-5.209824 8.802807-1.796492 5.209825h-6.826666l1.796491-7.006316-10.419649 1.796491-3.592983-5.389473-3.413333 5.389473-7.006316-15.809122-8.623158 7.006315-8.802807-1.796491-5.209824 1.796491-10.419649 10.41965h-7.006316l-1.616842 3.592982 10.419649 5.209825 5.209824 10.419649-12.21614 15.629473-20.839298-3.413333v-5.209825l-7.006316-1.796491v-3.413333l-7.006316-5.209825 3.413334-7.006315-1.437193-10.41965-7.006316 3.413334-1.796491-1.796491 3.592982-7.006316-12.21614 10.599298-7.006316 19.042807-3.413333-3.413333v-10.419649l3.413333-3.592983-3.413333-1.616842-1.796492-5.209825h-5.209824l-7.006316 3.413334-5.928421 5.928421-3.592983 1.077895h-7.904561l-7.006316 5.209824v13.832983l5.389474 7.006315-1.796491 3.592983-7.006316-1.796491 1.796491-7.006316-3.592982 3.413333-6.826667-1.616842-7.006316 8.623158-8.802807 3.592982-5.030175-3.592982v-3.413333l-5.209825 7.006315-15.629473 3.413334-8.802808-24.432281-15.629473-5.209825-12.216141-12.21614-5.209824-10.419649-3.413333 5.209825-10.41965-13.832983-10.419649-1.796491-8.623158-15.629474 3.413334-8.802807 6.826666-3.233684-1.616842-7.006316 13.832983-26.049123-3.413334-3.592982v-6.826667l3.413334-5.389473-5.209825-5.209825v-8.623158l-3.413333-1.796491-1.796491-5.209825-15.629474-3.413333-13.832982-15.809123-5.209825 1.796491-3.592983-3.233684v-5.209824l1.796492-3.592983h7.006316v-5.209824l-12.216141-3.413334-1.796491-1.796491 3.592982-1.796491-8.802807-5.209825-5.209824 1.796491-17.425965-17.425964-1.796491-15.629474 7.006315-8.802807 12.216141-25.869474 3.592982-1.796491v-5.209825l-3.592982-3.413333-17.425965-1.796491-26.049123 1.796491v-3.592982h-3.413333l-1.616842-5.209825-12.216141 1.796491-3.592982 3.413334-3.413333-5.209825-5.209825-1.796491-3.413333-6.826667-8.802807-3.592982V10.419649L442.475789 0l-24.43228 14.012632-0.718597 1.077894-1.077894 0.538948-0.17965 1.077894-1.437193 2.515088v8.623158l-8.623157 7.006316-3.413334 8.623158h-10.419649l-3.592982 10.419649 1.796491 15.629474h-10.419649l-1.796491 3.413333 0.359298 4.850526-0.359298 3.952281 1.437192 3.413333 0.359299 3.592983 7.006316 15.629473 6.826666 3.413334 3.592983 10.419649h15.449824l8.802807 15.809123-5.389473 10.24-10.24 10.419649v5.209824l-12.216141 14.012632-15.629473 10.419649 7.006315 34.85193-8.802807 12.21614h-6.826666v6.826667l-5.209825 6.826667v3.413333l6.826667 7.006316-1.616842 8.802807 6.826666 12.21614-3.413333 6.826667 3.413333 3.592982-8.623158 13.832983-3.413333-1.616843-1.796491 6.826667 3.413333 3.592983v39.882105l-3.413333 1.796491 7.006316 6.826667-1.796492 3.592982 3.413334 12.216141v19.042807l5.209824 7.006315-3.413333 15.629474 5.209825 17.246316v10.419649l-8.623158 1.796491-1.257544 1.616842-0.538948 0.179649-10.419649-10.419649-8.802807 1.616842-8.623158-3.413333-1.796491 3.413333-10.419649-8.623157-8.802807-1.796492-39.882105-1.796491-1.616842 3.592983-10.41965-5.209825h-7.006315l-7.006316 5.209825-27.845614 1.796491-8.802807 10.419649h-3.413333l-1.616843-3.592983-6.826666 3.592983-1.796491 5.209824 8.623157 1.796492-5.209824 15.629473 5.209824 5.209825-6.826666 3.413333-1.796491-5.209824h-3.592983l-1.616842 12.21614 8.623158 1.796491 5.209824-5.209824v12.21614l5.030176 5.209825 7.006316-3.592983 5.209824 7.006316 8.802807 3.413333-7.006316 7.006316-1.437193 3.413333-12.575438 15.629474v5.209825l10.599298 3.413333-10.599298 10.599298 10.599298 8.623158-1.796491 17.425965-15.449825 12.21614-7.006315-1.796491-3.592983 5.209825-3.413333-5.209825-1.796491 1.796491-5.209825 12.216141-1.616842 22.45614-7.006316 3.413333-3.592982-8.623157-3.413334-1.796492-12.21614 10.419649-3.413333 15.809123-12.216141 6.826667-7.006316 8.802807-7.006315 12.21614-8.443509 8.623158-1.796491 10.419649-3.413334-1.616842-10.419649 6.826667-19.222456 1.796491-3.413333 10.24-8.802807 7.006316v3.413333l5.209824 1.796491-3.413333 5.209825 1.616842 5.209825 17.425965 3.592982 10.599298-1.796491v5.209824l-5.389473 5.209825 1.796491 5.209824-3.413334 7.006316 13.832983 14.012632v26.049123l1.796491 3.413333 7.006316 1.796491 8.443509-3.592982 1.796491 3.592982-6.826667 13.832983-1.796491 9.701052-5.928421 3.413334-2.694737 0.718596-1.257544 1.437193-0.538947 0.359298-5.209825 7.006316 1.796492 3.413333 7.006315 8.802807 20.659649 10.41965 5.209825-1.796492 5.209825 5.209825 1.796491 14.012631 12.21614-5.209824 7.006316 1.616842 8.623158-5.209825-1.796491-6.826666 31.438596-55.870877 10.24-10.24 15.629474-5.209825h10.599298l24.252632 19.761404 8.802807 9.701052 8.623158 22.63579 5.209824 3.413333 3.592983 1.796491-3.592983 7.006316h-3.413333v8.623158h5.209824l8.623158-7.006316 12.216141-1.616842 8.623157 5.209825 5.209825-1.796492 8.623158 7.006316 8.802807 19.222456 15.629474 20.659649 1.796491 8.623158-3.592983 8.802807 5.389474 1.796492 3.413333 6.826666v8.802807l19.222457 7.006316v24.252632l12.036491 20.839298-1.616842 13.832982 15.449824 5.209825 12.216141-1.616842 40.061754-12.216141 10.419649-8.802807h8.802807l6.826667-5.209824 17.246316 7.006316 12.21614 1.796491 15.629474 10.419649 17.425964 3.413333 1.796492 5.209825h7.006316l5.209824 5.209824v-3.413333h10.419649v7.006316h5.209825l6.826666 7.006316 5.209825-1.796492 3.592982 5.209825h3.413334l3.413333-3.413333-1.616842-14.012632 3.413333-10.419649-5.209824-14.012632 7.006316 3.592983 1.616842-7.006316 8.802807 3.413333 1.796491-1.616842-10.599298-12.036491-3.413334-15.629474 1.796492-3.592982-1.796492-5.209825-5.209824-1.796491v-10.419649l-10.419649-5.209825-3.413334-10.419649-5.209824-5.209824v-7.006316l1.796491-12.21614 5.030175-10.41965-1.616842-6.826666h3.413334V862.315789l8.623158-1.616842 5.209824-7.006315 1.796491-24.432281 12.216141-8.623158 3.413333-5.389474v-12.036491l10.419649-7.006316 7.006316-8.623158-1.616842-15.629473 3.413333-22.63579-7.006316-14.012631 3.592983-34.85193-1.796491-11.856842-5.209825-7.006316 5.209825-7.006316v-8.623158l15.629473 1.616842 3.592983 3.592983 3.413333-1.796491v-10.41965l10.419649-7.006315-3.413333-5.209825-1.796491-31.438596-7.006316-3.413334 5.209824-3.413333-3.413333-3.592983-3.413333-12.036491h6.826666l22.63579-10.419649 33.055438-8.623158 26.049123-19.222456 39.882106-12.21614h14.012631l5.209825-5.209825h3.413333l-17.425965-26.049123-3.413333-1.616842-1.796491 5.030176-5.209825 3.592982-1.796491-1.796491-3.233684-6.826667v-5.209824l3.233684-3.592983-13.653334-26.049123 3.413334-3.413333v-5.209824l1.796491-1.796492 6.647018 5.209825 10.599298-7.006316 12.21614-3.413333 6.826667-8.802807 8.802807-5.209825 5.209824-8.623158-1.796491-17.425965 5.209825-3.413333 7.006315 3.413333 1.796492-1.616842 1.616842 5.209825 8.802807 3.233684 10.419649-6.826667 13.832982 13.832983 3.592983-3.413333v-6.826667l-3.592983-5.209825h-3.413333v-3.413333l13.832983-7.006316 1.796491 3.413333 3.413333-1.616842 1.796491-5.209824 3.413334 5.209824 3.413333-1.796491-1.616842-5.209824 8.623158-10.41965-5.209825-8.802807 3.592983-10.419649h3.413333l1.796491 3.413334 3.413334-1.616842-1.796492-3.592983 12.216141 1.796491V377.263158l7.006315 1.796491 1.796492-3.592982h7.006316l1.616842-1.616842-3.413334-7.006316 15.629474-7.006316 1.077895-2.155789 2.335438-1.257544-0.718596-2.15579z" fill="#ffffff" fill-opacity=".2" p-id="3936"></path><path d="M858.004211 252.047719l5.209824-1.796491v-7.006316l-3.413333-3.413333h-5.209825l-5.209824 5.209825 6.826666 7.006315h1.796492z" fill="#ffffff" fill-opacity=".2" p-id="3937"></path><path d="M947.649123 354.26807l0.718596-1.437193-3.413333-6.826666H937.94807l-6.826666-5.389474 3.413333-1.616842-3.413333-5.209825h-8.802808l-7.006315-5.209824 3.592982-6.826667-3.592982-3.592983h-3.413334v3.592983h-7.006315l-10.41965-7.006316-7.006315-15.629474 7.006315-7.006315-1.796491-3.413334-3.413333 1.616842-3.592983-3.413333v-3.592982l5.209825-3.413334v-8.623158l-1.616842-1.796491-3.592983 5.209825-3.413333-3.413334v-3.592982l5.209825 3.592982 1.796491-1.796491-3.592983-1.796491 1.796492-12.21614-5.209825-8.623158-3.413333 5.209824 3.413333 10.419649-5.209824 8.802807-1.796492 5.209825h-6.826666l1.796491-7.006316-10.419649 1.796491-3.592983-5.389473-3.413333 5.389473-7.006316-15.809122-8.623158 7.006315-8.802807-1.796491-5.209824 1.796491-10.419649 10.41965h-7.006316l-1.616842 3.592982 10.419649 5.209825 5.209824 10.419649-12.21614 15.629473-20.839298-3.413333v-5.209825l-7.006316-1.796491v-3.413333l-7.006316-5.209825 3.413334-7.006315-1.437193-10.41965-7.006316 3.413334-1.796491-1.796491 3.592982-7.006316-12.21614 10.599298-7.006316 19.042807-3.413333-3.413333v-10.419649l3.413333-3.592983-3.413333-1.616842-1.796492-5.209825h-5.209824l-7.006316 3.413334-5.928421 5.928421-3.592983 1.077895h-7.904561l-7.006316 5.209824v13.832983l5.389474 7.006315-1.796491 3.592983-7.006316-1.796491 1.796491-7.006316-3.592982 3.413333-6.826667-1.616842-7.006316 8.623158-8.802807 3.592982-5.030175-3.592982v-3.413333l-5.209825 7.006315-15.629473 3.413334-8.802808-24.432281-15.629473-5.209825-12.216141-12.21614-5.209824-10.419649-3.413333 5.209825-10.41965-13.832983-10.419649-1.796491-8.623158-15.629474 3.413334-8.802807 6.826666-3.233684-1.616842-7.006316 13.832983-26.049123-3.413334-3.592982v-6.826667l3.413334-5.389473-5.209825-5.209825v-8.623158l-3.413333-1.796491-1.796491-5.209825-15.629474-3.413333-13.832982-15.809123-5.209825 1.796491-3.592983-3.233684v-5.209824l1.796492-3.592983h7.006316v-5.209824l-12.216141-3.413334-1.796491-1.796491 3.592982-1.796491-8.802807-5.209825-5.209824 1.796491-17.425965-17.425964-1.796491-15.629474 7.006315-8.802807 12.216141-25.869474 3.592982-1.796491v-5.209825l-3.592982-3.413333-17.425965-1.796491-26.049123 1.796491v-3.592982h-3.413333l-1.616842-5.209825-12.216141 1.796491-3.592982 3.413334-3.413333-5.209825-5.209825-1.796491-3.413333-6.826667-8.802807-3.592982V10.419649L442.475789 0l-24.43228 14.012632-0.718597 1.077894-1.077894 0.538948-0.17965 1.077894-1.437193 2.515088v8.623158l-8.623157 7.006316-3.413334 8.623158h-10.419649l-3.592982 10.419649 1.796491 15.629474h-10.419649l-1.796491 3.413333 0.359298 4.850526-0.359298 3.952281 1.437192 3.413333 0.359299 3.592983 7.006316 15.629473 6.826666 3.413334 3.592983 10.419649h15.449824l8.802807 15.809123-5.389473 10.24-10.24 10.419649v5.209824l-12.216141 14.012632-15.629473 10.419649 7.006315 34.85193-8.802807 12.21614h-6.826666v6.826667l-5.209825 6.826667v3.413333l6.826667 7.006316-1.616842 8.802807 6.826666 12.21614-3.413333 6.826667 3.413333 3.592982-8.623158 13.832983-3.413333-1.616843-1.796491 6.826667 3.413333 3.592983v39.882105l-3.413333 1.796491 7.006316 6.826667-1.796492 3.592982 3.413334 12.216141v19.042807l5.209824 7.006315-3.413333 15.629474 5.209825 17.246316v10.419649l-8.623158 1.796491-1.257544 1.616842-0.538948 0.179649-10.419649-10.419649-8.802807 1.616842-8.623158-3.413333-1.796491 3.413333-10.419649-8.623157-8.802807-1.796492-39.882105-1.796491-1.616842 3.592983-10.41965-5.209825h-7.006315l-7.006316 5.209825-27.845614 1.796491-8.802807 10.419649h-3.413333l-1.616843-3.592983-6.826666 3.592983-1.796491 5.209824 8.623157 1.796492-5.209824 15.629473 5.209824 5.209825-6.826666 3.413333-1.796491-5.209824h-3.592983l-1.616842 12.21614 8.623158 1.796491 5.209824-5.209824v12.21614l5.030176 5.209825 7.006316-3.592983 5.209824 7.006316 8.802807 3.413333-7.006316 7.006316-1.437193 3.413333-12.575438 15.629474v5.209825l10.599298 3.413333-10.599298 10.599298 10.599298 8.623158-1.796491 17.425965-15.449825 12.21614-7.006315-1.796491-3.592983 5.209825-3.413333-5.209825-1.796491 1.796491-5.209825 12.216141-1.616842 22.45614-7.006316 3.413333-3.592982-8.623157-3.413334-1.796492-12.21614 10.419649-3.413333 15.809123-12.216141 6.826667-7.006316 8.802807-7.006315 12.21614-8.443509 8.623158-1.796491 10.419649-3.413334-1.616842-10.419649 6.826667-19.222456 1.796491-3.413333 10.24-8.802807 7.006316v3.413333l5.209824 1.796491-3.413333 5.209825 1.616842 5.209825 17.425965 3.592982 10.599298-1.796491v5.209824l-5.389473 5.209825 1.796491 5.209824-3.413334 7.006316 13.832983 14.012632v26.049123l1.796491 3.413333 7.006316 1.796491 8.443509-3.592982 1.796491 3.592982-6.826667 13.832983-1.796491 9.701052-5.928421 3.413334-2.694737 0.718596-1.257544 1.437193-0.538947 0.359298-5.209825 7.006316 1.796492 3.413333 7.006315 8.802807 20.659649 10.41965 5.209825-1.796492 5.209825 5.209825 1.796491 14.012631 12.21614-5.209824 7.006316 1.616842 8.623158-5.209825-1.796491-6.826666 31.438596-55.870877 10.24-10.24 15.629474-5.209825h10.599298l24.252632 19.761404 8.802807 9.701052 8.623158 22.63579 5.209824 3.413333 3.592983 1.796491-3.592983 7.006316h-3.413333v8.623158h5.209824l8.623158-7.006316 12.216141-1.616842 8.623157 5.209825 5.209825-1.796492 8.623158 7.006316 8.802807 19.222456 15.629474 20.659649 1.796491 8.623158-3.592983 8.802807 5.389474 1.796492 3.413333 6.826666v8.802807l19.222457 7.006316v24.252632l12.036491 20.839298-1.616842 13.832982 15.449824 5.209825 12.216141-1.616842 40.061754-12.216141 10.419649-8.802807h8.802807l6.826667-5.209824 17.246316 7.006316 12.21614 1.796491 15.629474 10.419649 17.425964 3.413333 1.796492 5.209825h7.006316l5.209824 5.209824v-3.413333h10.419649v7.006316h5.209825l6.826666 7.006316 5.209825-1.796492 3.592982 5.209825h3.413334l3.413333-3.413333-1.616842-14.012632 3.413333-10.419649-5.209824-14.012632 7.006316 3.592983 1.616842-7.006316 8.802807 3.413333 1.796491-1.616842-10.599298-12.036491-3.413334-15.629474 1.796492-3.592982-1.796492-5.209825-5.209824-1.796491v-10.419649l-10.419649-5.209825-3.413334-10.419649-5.209824-5.209824v-7.006316l1.796491-12.21614 5.030175-10.41965-1.616842-6.826666h3.413334V862.315789l8.623158-1.616842 5.209824-7.006315 1.796491-24.432281 12.216141-8.623158 3.413333-5.389474v-12.036491l10.419649-7.006316 7.006316-8.623158-1.616842-15.629473 3.413333-22.63579-7.006316-14.012631 3.592983-34.85193-1.796491-11.856842-5.209825-7.006316 5.209825-7.006316v-8.623158l15.629473 1.616842 3.592983 3.592983 3.413333-1.796491v-10.41965l10.419649-7.006315-3.413333-5.209825-1.796491-31.438596-7.006316-3.413334 5.209824-3.413333-3.413333-3.592983-3.413333-12.036491h6.826666l22.63579-10.419649 33.055438-8.623158 26.049123-19.222456 39.882106-12.21614h14.012631l5.209825-5.209825h3.413333l-17.425965-26.049123-3.413333-1.616842-1.796491 5.030176-5.209825 3.592982-1.796491-1.796491-3.233684-6.826667v-5.209824l3.233684-3.592983-13.653334-26.049123 3.413334-3.413333v-5.209824l1.796491-1.796492 6.647018 5.209825 10.599298-7.006316 12.21614-3.413333 6.826667-8.802807 8.802807-5.209825 5.209824-8.623158-1.796491-17.425965 5.209825-3.413333 7.006315 3.413333 1.796492-1.616842 1.616842 5.209825 8.802807 3.233684 10.419649-6.826667 13.832982 13.832983 3.592983-3.413333v-6.826667l-3.592983-5.209825h-3.413333v-3.413333l13.832983-7.006316 1.796491 3.413333 3.413333-1.616842 1.796491-5.209824 3.413334 5.209824 3.413333-1.796491-1.616842-5.209824 8.623158-10.41965-5.209825-8.802807 3.592983-10.419649h3.413333l1.796491 3.413334 3.413334-1.616842-1.796492-3.592983 12.216141 1.796491V377.263158l7.006315 1.796491 1.796492-3.592982h7.006316l1.616842-1.616842-3.413334-7.006316 15.629474-7.006316 1.077895-2.155789 2.335438-1.257544-0.718596-2.15579z" fill="#ffffff" fill-opacity=".2" p-id="3938"></path><path d="M858.004211 252.047719l5.209824-1.796491v-7.006316l-3.413333-3.413333h-5.209825l-5.209824 5.209825 6.826666 7.006315h1.796492z" fill="#ffffff" fill-opacity=".2" p-id="3939"></path><path d="M947.649123 354.26807l0.718596-1.437193-3.413333-6.826666H937.94807l-6.826666-5.389474 3.413333-1.616842-3.413333-5.209825h-8.802808l-7.006315-5.209824 3.592982-6.826667-3.592982-3.592983h-3.413334v3.592983h-7.006315l-10.41965-7.006316-7.006315-15.629474 7.006315-7.006315-1.796491-3.413334-3.413333 1.616842-3.592983-3.413333v-3.592982l5.209825-3.413334v-8.623158l-1.616842-1.796491-3.592983 5.209825-3.413333-3.413334v-3.592982l5.209825 3.592982 1.796491-1.796491-3.592983-1.796491 1.796492-12.21614-5.209825-8.623158-3.413333 5.209824 3.413333 10.419649-5.209824 8.802807-1.796492 5.209825h-6.826666l1.796491-7.006316-10.419649 1.796491-3.592983-5.389473-3.413333 5.389473-7.006316-15.809122-8.623158 7.006315-8.802807-1.796491-5.209824 1.796491-10.419649 10.41965h-7.006316l-1.616842 3.592982 10.419649 5.209825 5.209824 10.419649-12.21614 15.629473-20.839298-3.413333v-5.209825l-7.006316-1.796491v-3.413333l-7.006316-5.209825 3.413334-7.006315-1.437193-10.41965-7.006316 3.413334-1.796491-1.796491 3.592982-7.006316-12.21614 10.599298-7.006316 19.042807-3.413333-3.413333v-10.419649l3.413333-3.592983-3.413333-1.616842-1.796492-5.209825h-5.209824l-7.006316 3.413334-5.928421 5.928421-3.592983 1.077895h-7.904561l-7.006316 5.209824v13.832983l5.389474 7.006315-1.796491 3.592983-7.006316-1.796491 1.796491-7.006316-3.592982 3.413333-6.826667-1.616842-7.006316 8.623158-8.802807 3.592982-5.030175-3.592982v-3.413333l-5.209825 7.006315-15.629473 3.413334-8.802808-24.432281-15.629473-5.209825-12.216141-12.21614-5.209824-10.419649-3.413333 5.209825-10.41965-13.832983-10.419649-1.796491-8.623158-15.629474 3.413334-8.802807 6.826666-3.233684-1.616842-7.006316 13.832983-26.049123-3.413334-3.592982v-6.826667l3.413334-5.389473-5.209825-5.209825v-8.623158l-3.413333-1.796491-1.796491-5.209825-15.629474-3.413333-13.832982-15.809123-5.209825 1.796491-3.592983-3.233684v-5.209824l1.796492-3.592983h7.006316v-5.209824l-12.216141-3.413334-1.796491-1.796491 3.592982-1.796491-8.802807-5.209825-5.209824 1.796491-17.425965-17.425964-1.796491-15.629474 7.006315-8.802807 12.216141-25.869474 3.592982-1.796491v-5.209825l-3.592982-3.413333-17.425965-1.796491-26.049123 1.796491v-3.592982h-3.413333l-1.616842-5.209825-12.216141 1.796491-3.592982 3.413334-3.413333-5.209825-5.209825-1.796491-3.413333-6.826667-8.802807-3.592982V10.419649L442.475789 0l-24.43228 14.012632-0.718597 1.077894-1.077894 0.538948-0.17965 1.077894-1.437193 2.515088v8.623158l-8.623157 7.006316-3.413334 8.623158h-10.419649l-3.592982 10.419649 1.796491 15.629474h-10.419649l-1.796491 3.413333 0.359298 4.850526-0.359298 3.952281 1.437192 3.413333 0.359299 3.592983 7.006316 15.629473 6.826666 3.413334 3.592983 10.419649h15.449824l8.802807 15.809123-5.389473 10.24-10.24 10.419649v5.209824l-12.216141 14.012632-15.629473 10.419649 7.006315 34.85193-8.802807 12.21614h-6.826666v6.826667l-5.209825 6.826667v3.413333l6.826667 7.006316-1.616842 8.802807 6.826666 12.21614-3.413333 6.826667 3.413333 3.592982-8.623158 13.832983-3.413333-1.616843-1.796491 6.826667 3.413333 3.592983v39.882105l-3.413333 1.796491 7.006316 6.826667-1.796492 3.592982 3.413334 12.216141v19.042807l5.209824 7.006315-3.413333 15.629474 5.209825 17.246316v10.419649l-8.623158 1.796491-1.257544 1.616842-0.538948 0.179649-10.419649-10.419649-8.802807 1.616842-8.623158-3.413333-1.796491 3.413333-10.419649-8.623157-8.802807-1.796492-39.882105-1.796491-1.616842 3.592983-10.41965-5.209825h-7.006315l-7.006316 5.209825-27.845614 1.796491-8.802807 10.419649h-3.413333l-1.616843-3.592983-6.826666 3.592983-1.796491 5.209824 8.623157 1.796492-5.209824 15.629473 5.209824 5.209825-6.826666 3.413333-1.796491-5.209824h-3.592983l-1.616842 12.21614 8.623158 1.796491 5.209824-5.209824v12.21614l5.030176 5.209825 7.006316-3.592983 5.209824 7.006316 8.802807 3.413333-7.006316 7.006316-1.437193 3.413333-12.575438 15.629474v5.209825l10.599298 3.413333-10.599298 10.599298 10.599298 8.623158-1.796491 17.425965-15.449825 12.21614-7.006315-1.796491-3.592983 5.209825-3.413333-5.209825-1.796491 1.796491-5.209825 12.216141-1.616842 22.45614-7.006316 3.413333-3.592982-8.623157-3.413334-1.796492-12.21614 10.419649-3.413333 15.809123-12.216141 6.826667-7.006316 8.802807-7.006315 12.21614-8.443509 8.623158-1.796491 10.419649-3.413334-1.616842-10.419649 6.826667-19.222456 1.796491-3.413333 10.24-8.802807 7.006316v3.413333l5.209824 1.796491-3.413333 5.209825 1.616842 5.209825 17.425965 3.592982 10.599298-1.796491v5.209824l-5.389473 5.209825 1.796491 5.209824-3.413334 7.006316 13.832983 14.012632v26.049123l1.796491 3.413333 7.006316 1.796491 8.443509-3.592982 1.796491 3.592982-6.826667 13.832983-1.796491 9.701052-5.928421 3.413334-2.694737 0.718596-1.257544 1.437193-0.538947 0.359298-5.209825 7.006316 1.796492 3.413333 7.006315 8.802807 20.659649 10.41965 5.209825-1.796492 5.209825 5.209825 1.796491 14.012631 12.21614-5.209824 7.006316 1.616842 8.623158-5.209825-1.796491-6.826666 31.438596-55.870877 10.24-10.24 15.629474-5.209825h10.599298l24.252632 19.761404 8.802807 9.701052 8.623158 22.63579 5.209824 3.413333 3.592983 1.796491-3.592983 7.006316h-3.413333v8.623158h5.209824l8.623158-7.006316 12.216141-1.616842 8.623157 5.209825 5.209825-1.796492 8.623158 7.006316 8.802807 19.222456 15.629474 20.659649 1.796491 8.623158-3.592983 8.802807 5.389474 1.796492 3.413333 6.826666v8.802807l19.222457 7.006316v24.252632l12.036491 20.839298-1.616842 13.832982 15.449824 5.209825 12.216141-1.616842 40.061754-12.216141 10.419649-8.802807h8.802807l6.826667-5.209824 17.246316 7.006316 12.21614 1.796491 15.629474 10.419649 17.425964 3.413333 1.796492 5.209825h7.006316l5.209824 5.209824v-3.413333h10.419649v7.006316h5.209825l6.826666 7.006316 5.209825-1.796492 3.592982 5.209825h3.413334l3.413333-3.413333-1.616842-14.012632 3.413333-10.419649-5.209824-14.012632 7.006316 3.592983 1.616842-7.006316 8.802807 3.413333 1.796491-1.616842-10.599298-12.036491-3.413334-15.629474 1.796492-3.592982-1.796492-5.209825-5.209824-1.796491v-10.419649l-10.419649-5.209825-3.413334-10.419649-5.209824-5.209824v-7.006316l1.796491-12.21614 5.030175-10.41965-1.616842-6.826666h3.413334V862.315789l8.623158-1.616842 5.209824-7.006315 1.796491-24.432281 12.216141-8.623158 3.413333-5.389474v-12.036491l10.419649-7.006316 7.006316-8.623158-1.616842-15.629473 3.413333-22.63579-7.006316-14.012631 3.592983-34.85193-1.796491-11.856842-5.209825-7.006316 5.209825-7.006316v-8.623158l15.629473 1.616842 3.592983 3.592983 3.413333-1.796491v-10.41965l10.419649-7.006315-3.413333-5.209825-1.796491-31.438596-7.006316-3.413334 5.209824-3.413333-3.413333-3.592983-3.413333-12.036491h6.826666l22.63579-10.419649 33.055438-8.623158 26.049123-19.222456 39.882106-12.21614h14.012631l5.209825-5.209825h3.413333l-17.425965-26.049123-3.413333-1.616842-1.796491 5.030176-5.209825 3.592982-1.796491-1.796491-3.233684-6.826667v-5.209824l3.233684-3.592983-13.653334-26.049123 3.413334-3.413333v-5.209824l1.796491-1.796492 6.647018 5.209825 10.599298-7.006316 12.21614-3.413333 6.826667-8.802807 8.802807-5.209825 5.209824-8.623158-1.796491-17.425965 5.209825-3.413333 7.006315 3.413333 1.796492-1.616842 1.616842 5.209825 8.802807 3.233684 10.419649-6.826667 13.832982 13.832983 3.592983-3.413333v-6.826667l-3.592983-5.209825h-3.413333v-3.413333l13.832983-7.006316 1.796491 3.413333 3.413333-1.616842 1.796491-5.209824 3.413334 5.209824 3.413333-1.796491-1.616842-5.209824 8.623158-10.41965-5.209825-8.802807 3.592983-10.419649h3.413333l1.796491 3.413334 3.413334-1.616842-1.796492-3.592983 12.216141 1.796491V377.263158l7.006315 1.796491 1.796492-3.592982h7.006316l1.616842-1.616842-3.413334-7.006316 15.629474-7.006316 1.077895-2.155789 2.335438-1.257544-0.718596-2.15579z" fill="#ffffff" fill-opacity=".2" p-id="3940"></path><path d="M858.004211 252.047719l5.209824-1.796491v-7.006316l-3.413333-3.413333h-5.209825l-5.209824 5.209825 6.826666 7.006315h1.796492z" fill="#ffffff" fill-opacity=".2" p-id="3941"></path><path d="M947.649123 354.26807l0.718596-1.437193-3.413333-6.826666H937.94807l-6.826666-5.389474 3.413333-1.616842-3.413333-5.209825h-8.802808l-7.006315-5.209824 3.592982-6.826667-3.592982-3.592983h-3.413334v3.592983h-7.006315l-10.41965-7.006316-7.006315-15.629474 7.006315-7.006315-1.796491-3.413334-3.413333 1.616842-3.592983-3.413333v-3.592982l5.209825-3.413334v-8.623158l-1.616842-1.796491-3.592983 5.209825-3.413333-3.413334v-3.592982l5.209825 3.592982 1.796491-1.796491-3.592983-1.796491 1.796492-12.21614-5.209825-8.623158-3.413333 5.209824 3.413333 10.419649-5.209824 8.802807-1.796492 5.209825h-6.826666l1.796491-7.006316-10.419649 1.796491-3.592983-5.389473-3.413333 5.389473-7.006316-15.809122-8.623158 7.006315-8.802807-1.796491-5.209824 1.796491-10.419649 10.41965h-7.006316l-1.616842 3.592982 10.419649 5.209825 5.209824 10.419649-12.21614 15.629473-20.839298-3.413333v-5.209825l-7.006316-1.796491v-3.413333l-7.006316-5.209825 3.413334-7.006315-1.437193-10.41965-7.006316 3.413334-1.796491-1.796491 3.592982-7.006316-12.21614 10.599298-7.006316 19.042807-3.413333-3.413333v-10.419649l3.413333-3.592983-3.413333-1.616842-1.796492-5.209825h-5.209824l-7.006316 3.413334-5.928421 5.928421-3.592983 1.077895h-7.904561l-7.006316 5.209824v13.832983l5.389474 7.006315-1.796491 3.592983-7.006316-1.796491 1.796491-7.006316-3.592982 3.413333-6.826667-1.616842-7.006316 8.623158-8.802807 3.592982-5.030175-3.592982v-3.413333l-5.209825 7.006315-15.629473 3.413334-8.802808-24.432281-15.629473-5.209825-12.216141-12.21614-5.209824-10.419649-3.413333 5.209825-10.41965-13.832983-10.419649-1.796491-8.623158-15.629474 3.413334-8.802807 6.826666-3.233684-1.616842-7.006316 13.832983-26.049123-3.413334-3.592982v-6.826667l3.413334-5.389473-5.209825-5.209825v-8.623158l-3.413333-1.796491-1.796491-5.209825-15.629474-3.413333-13.832982-15.809123-5.209825 1.796491-3.592983-3.233684v-5.209824l1.796492-3.592983h7.006316v-5.209824l-12.216141-3.413334-1.796491-1.796491 3.592982-1.796491-8.802807-5.209825-5.209824 1.796491-17.425965-17.425964-1.796491-15.629474 7.006315-8.802807 12.216141-25.869474 3.592982-1.796491v-5.209825l-3.592982-3.413333-17.425965-1.796491-26.049123 1.796491v-3.592982h-3.413333l-1.616842-5.209825-12.216141 1.796491-3.592982 3.413334-3.413333-5.209825-5.209825-1.796491-3.413333-6.826667-8.802807-3.592982V10.419649L442.475789 0l-24.43228 14.012632-0.718597 1.077894-1.077894 0.538948-0.17965 1.077894-1.437193 2.515088v8.623158l-8.623157 7.006316-3.413334 8.623158h-10.419649l-3.592982 10.419649 1.796491 15.629474h-10.419649l-1.796491 3.413333 0.359298 4.850526-0.359298 3.952281 1.437192 3.413333 0.359299 3.592983 7.006316 15.629473 6.826666 3.413334 3.592983 10.419649h15.449824l8.802807 15.809123-5.389473 10.24-10.24 10.419649v5.209824l-12.216141 14.012632-15.629473 10.419649 7.006315 34.85193-8.802807 12.21614h-6.826666v6.826667l-5.209825 6.826667v3.413333l6.826667 7.006316-1.616842 8.802807 6.826666 12.21614-3.413333 6.826667 3.413333 3.592982-8.623158 13.832983-3.413333-1.616843-1.796491 6.826667 3.413333 3.592983v39.882105l-3.413333 1.796491 7.006316 6.826667-1.796492 3.592982 3.413334 12.216141v19.042807l5.209824 7.006315-3.413333 15.629474 5.209825 17.246316v10.419649l-8.623158 1.796491-1.257544 1.616842-0.538948 0.179649-10.419649-10.419649-8.802807 1.616842-8.623158-3.413333-1.796491 3.413333-10.419649-8.623157-8.802807-1.796492-39.882105-1.796491-1.616842 3.592983-10.41965-5.209825h-7.006315l-7.006316 5.209825-27.845614 1.796491-8.802807 10.419649h-3.413333l-1.616843-3.592983-6.826666 3.592983-1.796491 5.209824 8.623157 1.796492-5.209824 15.629473 5.209824 5.209825-6.826666 3.413333-1.796491-5.209824h-3.592983l-1.616842 12.21614 8.623158 1.796491 5.209824-5.209824v12.21614l5.030176 5.209825 7.006316-3.592983 5.209824 7.006316 8.802807 3.413333-7.006316 7.006316-1.437193 3.413333-12.575438 15.629474v5.209825l10.599298 3.413333-10.599298 10.599298 10.599298 8.623158-1.796491 17.425965-15.449825 12.21614-7.006315-1.796491-3.592983 5.209825-3.413333-5.209825-1.796491 1.796491-5.209825 12.216141-1.616842 22.45614-7.006316 3.413333-3.592982-8.623157-3.413334-1.796492-12.21614 10.419649-3.413333 15.809123-12.216141 6.826667-7.006316 8.802807-7.006315 12.21614-8.443509 8.623158-1.796491 10.419649-3.413334-1.616842-10.419649 6.826667-19.222456 1.796491-3.413333 10.24-8.802807 7.006316v3.413333l5.209824 1.796491-3.413333 5.209825 1.616842 5.209825 17.425965 3.592982 10.599298-1.796491v5.209824l-5.389473 5.209825 1.796491 5.209824-3.413334 7.006316 13.832983 14.012632v26.049123l1.796491 3.413333 7.006316 1.796491 8.443509-3.592982 1.796491 3.592982-6.826667 13.832983-1.796491 9.701052-5.928421 3.413334-2.694737 0.718596-1.257544 1.437193-0.538947 0.359298-5.209825 7.006316 1.796492 3.413333 7.006315 8.802807 20.659649 10.41965 5.209825-1.796492 5.209825 5.209825 1.796491 14.012631 12.21614-5.209824 7.006316 1.616842 8.623158-5.209825-1.796491-6.826666 31.438596-55.870877 10.24-10.24 15.629474-5.209825h10.599298l24.252632 19.761404 8.802807 9.701052 8.623158 22.63579 5.209824 3.413333 3.592983 1.796491-3.592983 7.006316h-3.413333v8.623158h5.209824l8.623158-7.006316 12.216141-1.616842 8.623157 5.209825 5.209825-1.796492 8.623158 7.006316 8.802807 19.222456 15.629474 20.659649 1.796491 8.623158-3.592983 8.802807 5.389474 1.796492 3.413333 6.826666v8.802807l19.222457 7.006316v24.252632l12.036491 20.839298-1.616842 13.832982 15.449824 5.209825 12.216141-1.616842 40.061754-12.216141 10.419649-8.802807h8.802807l6.826667-5.209824 17.246316 7.006316 12.21614 1.796491 15.629474 10.419649 17.425964 3.413333 1.796492 5.209825h7.006316l5.209824 5.209824v-3.413333h10.419649v7.006316h5.209825l6.826666 7.006316 5.209825-1.796492 3.592982 5.209825h3.413334l3.413333-3.413333-1.616842-14.012632 3.413333-10.419649-5.209824-14.012632 7.006316 3.592983 1.616842-7.006316 8.802807 3.413333 1.796491-1.616842-10.599298-12.036491-3.413334-15.629474 1.796492-3.592982-1.796492-5.209825-5.209824-1.796491v-10.419649l-10.419649-5.209825-3.413334-10.419649-5.209824-5.209824v-7.006316l1.796491-12.21614 5.030175-10.41965-1.616842-6.826666h3.413334V862.315789l8.623158-1.616842 5.209824-7.006315 1.796491-24.432281 12.216141-8.623158 3.413333-5.389474v-12.036491l10.419649-7.006316 7.006316-8.623158-1.616842-15.629473 3.413333-22.63579-7.006316-14.012631 3.592983-34.85193-1.796491-11.856842-5.209825-7.006316 5.209825-7.006316v-8.623158l15.629473 1.616842 3.592983 3.592983 3.413333-1.796491v-10.41965l10.419649-7.006315-3.413333-5.209825-1.796491-31.438596-7.006316-3.413334 5.209824-3.413333-3.413333-3.592983-3.413333-12.036491h6.826666l22.63579-10.419649 33.055438-8.623158 26.049123-19.222456 39.882106-12.21614h14.012631l5.209825-5.209825h3.413333l-17.425965-26.049123-3.413333-1.616842-1.796491 5.030176-5.209825 3.592982-1.796491-1.796491-3.233684-6.826667v-5.209824l3.233684-3.592983-13.653334-26.049123 3.413334-3.413333v-5.209824l1.796491-1.796492 6.647018 5.209825 10.599298-7.006316 12.21614-3.413333 6.826667-8.802807 8.802807-5.209825 5.209824-8.623158-1.796491-17.425965 5.209825-3.413333 7.006315 3.413333 1.796492-1.616842 1.616842 5.209825 8.802807 3.233684 10.419649-6.826667 13.832982 13.832983 3.592983-3.413333v-6.826667l-3.592983-5.209825h-3.413333v-3.413333l13.832983-7.006316 1.796491 3.413333 3.413333-1.616842 1.796491-5.209824 3.413334 5.209824 3.413333-1.796491-1.616842-5.209824 8.623158-10.41965-5.209825-8.802807 3.592983-10.419649h3.413333l1.796491 3.413334 3.413334-1.616842-1.796492-3.592983 12.216141 1.796491V377.263158l7.006315 1.796491 1.796492-3.592982h7.006316l1.616842-1.616842-3.413334-7.006316 15.629474-7.006316 1.077895-2.155789 2.335438-1.257544-0.718596-2.15579z" fill="#ffffff" fill-opacity=".2" p-id="3942"></path><path d="M858.004211 252.047719l5.209824-1.796491v-7.006316l-3.413333-3.413333h-5.209825l-5.209824 5.209825 6.826666 7.006315h1.796492z" fill="#ffffff" fill-opacity=".2" p-id="3943"></path><path d="M947.649123 354.26807l0.718596-1.437193-3.413333-6.826666H937.94807l-6.826666-5.389474 3.413333-1.616842-3.413333-5.209825h-8.802808l-7.006315-5.209824 3.592982-6.826667-3.592982-3.592983h-3.413334v3.592983h-7.006315l-10.41965-7.006316-7.006315-15.629474 7.006315-7.006315-1.796491-3.413334-3.413333 1.616842-3.592983-3.413333v-3.592982l5.209825-3.413334v-8.623158l-1.616842-1.796491-3.592983 5.209825-3.413333-3.413334v-3.592982l5.209825 3.592982 1.796491-1.796491-3.592983-1.796491 1.796492-12.21614-5.209825-8.623158-3.413333 5.209824 3.413333 10.419649-5.209824 8.802807-1.796492 5.209825h-6.826666l1.796491-7.006316-10.419649 1.796491-3.592983-5.389473-3.413333 5.389473-7.006316-15.809122-8.623158 7.006315-8.802807-1.796491-5.209824 1.796491-10.419649 10.41965h-7.006316l-1.616842 3.592982 10.419649 5.209825 5.209824 10.419649-12.21614 15.629473-20.839298-3.413333v-5.209825l-7.006316-1.796491v-3.413333l-7.006316-5.209825 3.413334-7.006315-1.437193-10.41965-7.006316 3.413334-1.796491-1.796491 3.592982-7.006316-12.21614 10.599298-7.006316 19.042807-3.413333-3.413333v-10.419649l3.413333-3.592983-3.413333-1.616842-1.796492-5.209825h-5.209824l-7.006316 3.413334-5.928421 5.928421-3.592983 1.077895h-7.904561l-7.006316 5.209824v13.832983l5.389474 7.006315-1.796491 3.592983-7.006316-1.796491 1.796491-7.006316-3.592982 3.413333-6.826667-1.616842-7.006316 8.623158-8.802807 3.592982-5.030175-3.592982v-3.413333l-5.209825 7.006315-15.629473 3.413334-8.802808-24.432281-15.629473-5.209825-12.216141-12.21614-5.209824-10.419649-3.413333 5.209825-10.41965-13.832983-10.419649-1.796491-8.623158-15.629474 3.413334-8.802807 6.826666-3.233684-1.616842-7.006316 13.832983-26.049123-3.413334-3.592982v-6.826667l3.413334-5.389473-5.209825-5.209825v-8.623158l-3.413333-1.796491-1.796491-5.209825-15.629474-3.413333-13.832982-15.809123-5.209825 1.796491-3.592983-3.233684v-5.209824l1.796492-3.592983h7.006316v-5.209824l-12.216141-3.413334-1.796491-1.796491 3.592982-1.796491-8.802807-5.209825-5.209824 1.796491-17.425965-17.425964-1.796491-15.629474 7.006315-8.802807 12.216141-25.869474 3.592982-1.796491v-5.209825l-3.592982-3.413333-17.425965-1.796491-26.049123 1.796491v-3.592982h-3.413333l-1.616842-5.209825-12.216141 1.796491-3.592982 3.413334-3.413333-5.209825-5.209825-1.796491-3.413333-6.826667-8.802807-3.592982V10.419649L442.475789 0l-24.43228 14.012632-0.718597 1.077894-1.077894 0.538948-0.17965 1.077894-1.437193 2.515088v8.623158l-8.623157 7.006316-3.413334 8.623158h-10.419649l-3.592982 10.419649 1.796491 15.629474h-10.419649l-1.796491 3.413333 0.359298 4.850526-0.359298 3.952281 1.437192 3.413333 0.359299 3.592983 7.006316 15.629473 6.826666 3.413334 3.592983 10.419649h15.449824l8.802807 15.809123-5.389473 10.24-10.24 10.419649v5.209824l-12.216141 14.012632-15.629473 10.419649 7.006315 34.85193-8.802807 12.21614h-6.826666v6.826667l-5.209825 6.826667v3.413333l6.826667 7.006316-1.616842 8.802807 6.826666 12.21614-3.413333 6.826667 3.413333 3.592982-8.623158 13.832983-3.413333-1.616843-1.796491 6.826667 3.413333 3.592983v39.882105l-3.413333 1.796491 7.006316 6.826667-1.796492 3.592982 3.413334 12.216141v19.042807l5.209824 7.006315-3.413333 15.629474 5.209825 17.246316v10.419649l-8.623158 1.796491-1.257544 1.616842-0.538948 0.179649-10.419649-10.419649-8.802807 1.616842-8.623158-3.413333-1.796491 3.413333-10.419649-8.623157-8.802807-1.796492-39.882105-1.796491-1.616842 3.592983-10.41965-5.209825h-7.006315l-7.006316 5.209825-27.845614 1.796491-8.802807 10.419649h-3.413333l-1.616843-3.592983-6.826666 3.592983-1.796491 5.209824 8.623157 1.796492-5.209824 15.629473 5.209824 5.209825-6.826666 3.413333-1.796491-5.209824h-3.592983l-1.616842 12.21614 8.623158 1.796491 5.209824-5.209824v12.21614l5.030176 5.209825 7.006316-3.592983 5.209824 7.006316 8.802807 3.413333-7.006316 7.006316-1.437193 3.413333-12.575438 15.629474v5.209825l10.599298 3.413333-10.599298 10.599298 10.599298 8.623158-1.796491 17.425965-15.449825 12.21614-7.006315-1.796491-3.592983 5.209825-3.413333-5.209825-1.796491 1.796491-5.209825 12.216141-1.616842 22.45614-7.006316 3.413333-3.592982-8.623157-3.413334-1.796492-12.21614 10.419649-3.413333 15.809123-12.216141 6.826667-7.006316 8.802807-7.006315 12.21614-8.443509 8.623158-1.796491 10.419649-3.413334-1.616842-10.419649 6.826667-19.222456 1.796491-3.413333 10.24-8.802807 7.006316v3.413333l5.209824 1.796491-3.413333 5.209825 1.616842 5.209825 17.425965 3.592982 10.599298-1.796491v5.209824l-5.389473 5.209825 1.796491 5.209824-3.413334 7.006316 13.832983 14.012632v26.049123l1.796491 3.413333 7.006316 1.796491 8.443509-3.592982 1.796491 3.592982-6.826667 13.832983-1.796491 9.701052-5.928421 3.413334-2.694737 0.718596-1.257544 1.437193-0.538947 0.359298-5.209825 7.006316 1.796492 3.413333 7.006315 8.802807 20.659649 10.41965 5.209825-1.796492 5.209825 5.209825 1.796491 14.012631 12.21614-5.209824 7.006316 1.616842 8.623158-5.209825-1.796491-6.826666 31.438596-55.870877 10.24-10.24 15.629474-5.209825h10.599298l24.252632 19.761404 8.802807 9.701052 8.623158 22.63579 5.209824 3.413333 3.592983 1.796491-3.592983 7.006316h-3.413333v8.623158h5.209824l8.623158-7.006316 12.216141-1.616842 8.623157 5.209825 5.209825-1.796492 8.623158 7.006316 8.802807 19.222456 15.629474 20.659649 1.796491 8.623158-3.592983 8.802807 5.389474 1.796492 3.413333 6.826666v8.802807l19.222457 7.006316v24.252632l12.036491 20.839298-1.616842 13.832982 15.449824 5.209825 12.216141-1.616842 40.061754-12.216141 10.419649-8.802807h8.802807l6.826667-5.209824 17.246316 7.006316 12.21614 1.796491 15.629474 10.419649 17.425964 3.413333 1.796492 5.209825h7.006316l5.209824 5.209824v-3.413333h10.419649v7.006316h5.209825l6.826666 7.006316 5.209825-1.796492 3.592982 5.209825h3.413334l3.413333-3.413333-1.616842-14.012632 3.413333-10.419649-5.209824-14.012632 7.006316 3.592983 1.616842-7.006316 8.802807 3.413333 1.796491-1.616842-10.599298-12.036491-3.413334-15.629474 1.796492-3.592982-1.796492-5.209825-5.209824-1.796491v-10.419649l-10.419649-5.209825-3.413334-10.419649-5.209824-5.209824v-7.006316l1.796491-12.21614 5.030175-10.41965-1.616842-6.826666h3.413334V862.315789l8.623158-1.616842 5.209824-7.006315 1.796491-24.432281 12.216141-8.623158 3.413333-5.389474v-12.036491l10.419649-7.006316 7.006316-8.623158-1.616842-15.629473 3.413333-22.63579-7.006316-14.012631 3.592983-34.85193-1.796491-11.856842-5.209825-7.006316 5.209825-7.006316v-8.623158l15.629473 1.616842 3.592983 3.592983 3.413333-1.796491v-10.41965l10.419649-7.006315-3.413333-5.209825-1.796491-31.438596-7.006316-3.413334 5.209824-3.413333-3.413333-3.592983-3.413333-12.036491h6.826666l22.63579-10.419649 33.055438-8.623158 26.049123-19.222456 39.882106-12.21614h14.012631l5.209825-5.209825h3.413333l-17.425965-26.049123-3.413333-1.616842-1.796491 5.030176-5.209825 3.592982-1.796491-1.796491-3.233684-6.826667v-5.209824l3.233684-3.592983-13.653334-26.049123 3.413334-3.413333v-5.209824l1.796491-1.796492 6.647018 5.209825 10.599298-7.006316 12.21614-3.413333 6.826667-8.802807 8.802807-5.209825 5.209824-8.623158-1.796491-17.425965 5.209825-3.413333 7.006315 3.413333 1.796492-1.616842 1.616842 5.209825 8.802807 3.233684 10.419649-6.826667 13.832982 13.832983 3.592983-3.413333v-6.826667l-3.592983-5.209825h-3.413333v-3.413333l13.832983-7.006316 1.796491 3.413333 3.413333-1.616842 1.796491-5.209824 3.413334 5.209824 3.413333-1.796491-1.616842-5.209824 8.623158-10.41965-5.209825-8.802807 3.592983-10.419649h3.413333l1.796491 3.413334 3.413334-1.616842-1.796492-3.592983 12.216141 1.796491V377.263158l7.006315 1.796491 1.796492-3.592982h7.006316l1.616842-1.616842-3.413334-7.006316 15.629474-7.006316 1.077895-2.155789 2.335438-1.257544-0.718596-2.15579z" fill="#ffffff" fill-opacity=".2" p-id="3944"></path><path d="M858.004211 252.047719l5.209824-1.796491v-7.006316l-3.413333-3.413333h-5.209825l-5.209824 5.209825 6.826666 7.006315h1.796492z" fill="#ffffff" fill-opacity=".2" p-id="3945"></path><path d="M947.649123 354.26807l0.718596-1.437193-3.413333-6.826666H937.94807l-6.826666-5.389474 3.413333-1.616842-3.413333-5.209825h-8.802808l-7.006315-5.209824 3.592982-6.826667-3.592982-3.592983h-3.413334v3.592983h-7.006315l-10.41965-7.006316-7.006315-15.629474 7.006315-7.006315-1.796491-3.413334-3.413333 1.616842-3.592983-3.413333v-3.592982l5.209825-3.413334v-8.623158l-1.616842-1.796491-3.592983 5.209825-3.413333-3.413334v-3.592982l5.209825 3.592982 1.796491-1.796491-3.592983-1.796491 1.796492-12.21614-5.209825-8.623158-3.413333 5.209824 3.413333 10.419649-5.209824 8.802807-1.796492 5.209825h-6.826666l1.796491-7.006316-10.419649 1.796491-3.592983-5.389473-3.413333 5.389473-7.006316-15.809122-8.623158 7.006315-8.802807-1.796491-5.209824 1.796491-10.419649 10.41965h-7.006316l-1.616842 3.592982 10.419649 5.209825 5.209824 10.419649-12.21614 15.629473-20.839298-3.413333v-5.209825l-7.006316-1.796491v-3.413333l-7.006316-5.209825 3.413334-7.006315-1.437193-10.41965-7.006316 3.413334-1.796491-1.796491 3.592982-7.006316-12.21614 10.599298-7.006316 19.042807-3.413333-3.413333v-10.419649l3.413333-3.592983-3.413333-1.616842-1.796492-5.209825h-5.209824l-7.006316 3.413334-5.928421 5.928421-3.592983 1.077895h-7.904561l-7.006316 5.209824v13.832983l5.389474 7.006315-1.796491 3.592983-7.006316-1.796491 1.796491-7.006316-3.592982 3.413333-6.826667-1.616842-7.006316 8.623158-8.802807 3.592982-5.030175-3.592982v-3.413333l-5.209825 7.006315-15.629473 3.413334-8.802808-24.432281-15.629473-5.209825-12.216141-12.21614-5.209824-10.419649-3.413333 5.209825-10.41965-13.832983-10.419649-1.796491-8.623158-15.629474 3.413334-8.802807 6.826666-3.233684-1.616842-7.006316 13.832983-26.049123-3.413334-3.592982v-6.826667l3.413334-5.389473-5.209825-5.209825v-8.623158l-3.413333-1.796491-1.796491-5.209825-15.629474-3.413333-13.832982-15.809123-5.209825 1.796491-3.592983-3.233684v-5.209824l1.796492-3.592983h7.006316v-5.209824l-12.216141-3.413334-1.796491-1.796491 3.592982-1.796491-8.802807-5.209825-5.209824 1.796491-17.425965-17.425964-1.796491-15.629474 7.006315-8.802807 12.216141-25.869474 3.592982-1.796491v-5.209825l-3.592982-3.413333-17.425965-1.796491-26.049123 1.796491v-3.592982h-3.413333l-1.616842-5.209825-12.216141 1.796491-3.592982 3.413334-3.413333-5.209825-5.209825-1.796491-3.413333-6.826667-8.802807-3.592982V10.419649L442.475789 0l-24.43228 14.012632-0.718597 1.077894-1.077894 0.538948-0.17965 1.077894-1.437193 2.515088v8.623158l-8.623157 7.006316-3.413334 8.623158h-10.419649l-3.592982 10.419649 1.796491 15.629474h-10.419649l-1.796491 3.413333 0.359298 4.850526-0.359298 3.952281 1.437192 3.413333 0.359299 3.592983 7.006316 15.629473 6.826666 3.413334 3.592983 10.419649h15.449824l8.802807 15.809123-5.389473 10.24-10.24 10.419649v5.209824l-12.216141 14.012632-15.629473 10.419649 7.006315 34.85193-8.802807 12.21614h-6.826666v6.826667l-5.209825 6.826667v3.413333l6.826667 7.006316-1.616842 8.802807 6.826666 12.21614-3.413333 6.826667 3.413333 3.592982-8.623158 13.832983-3.413333-1.616843-1.796491 6.826667 3.413333 3.592983v39.882105l-3.413333 1.796491 7.006316 6.826667-1.796492 3.592982 3.413334 12.216141v19.042807l5.209824 7.006315-3.413333 15.629474 5.209825 17.246316v10.419649l-8.623158 1.796491-1.257544 1.616842-0.538948 0" fill="#ffffff" fill-opacity=".2" p-id="3946"></path></svg>