<?xml version="1.0" standalone="no"?><!DOCTYPE svg PUBLIC "-//W3C//DTD SVG 1.1//EN" "http://www.w3.org/Graphics/SVG/1.1/DTD/svg11.dtd"><svg t="1609830905012" class="icon" viewBox="0 0 1024 1024" version="1.1" xmlns="http://www.w3.org/2000/svg" p-id="2165" xmlns:xlink="http://www.w3.org/1999/xlink" width="200" height="200"><defs><style type="text/css"></style></defs><path d="M507.13840122 411.37559012m-161.40507999 0a161.40507999 161.40507999 0 1 0 322.81015995 0 161.40507999 161.40507999 0 1 0-322.81015995 0Z" fill="#F3F3F3" p-id="2166"></path><path d="M546.90627933 488.480547l24.307994 4.6671348c10.01489353 1.94463953 12.5429249 0.38892789 14.48756439-10.11212544l20.80764283-111.71954032c1.94463953-10.20935747 0.48615987-12.73738883-9.82042955-14.77926032l-18.96023531-3.69481507v115.70605127c0 5.2505267-0.38892789 11.27890919-4.47267089 15.4598842-3.98651101 3.98651101-9.82042956 4.37543892-14.97372427 4.37543888h-11.3761412z" fill="#BEBFBF" p-id="2167"></path><path d="M419.24069501 480.7992209h138.55556563c10.1121255 0 12.25122896-1.94463953 12.25122897-12.64015687V354.4948842c0-10.40382143-1.94463953-12.64015686-12.25122898-12.64015684H419.24069501c-10.1121255 0-12.25122896 1.75017555-12.25122897 12.64015684v113.66417983c0 10.69551735 2.0418715 12.64015686 12.25122897 12.64015687z m110.55275658-115.70605129c8.36194993 0 15.07095626 6.70900633 15.07095626 15.07095624s-6.80623831 15.07095626-15.07095626 15.07095628c-8.36194993 0-15.07095626-6.70900633-15.07095627-15.07095628s6.70900633-15.07095626 15.07095627-15.07095625z m-59.99212912 31.21146425c5.93115053 0 25.96093757 27.41941721 35.1007433 37.14261478 0 0 11.66783712-16.14050799 17.79345158-16.14050798 6.22284644 0 27.0304893 33.25333575 27.22495324 33.35056771H426.14416528c13.51524465-20.41871493 37.5315427-54.35267453 43.65715719-54.35267451zM459.39750105 329.50626643c-7.97302202-1.45847963-11.18167724-0.87508778-13.12631674 4.3754389h37.23984676l-24.11353004-4.3754389z" fill="#BEBFBF" p-id="2168"></path><text xmlns="http://www.w3.org/2000/svg" x="360" y="700" font-size="50" style="fill:#cccccc">暂无图片生成</text></svg>