<?xml version="1.0" standalone="no"?><!DOCTYPE svg PUBLIC "-//W3C//DTD SVG 1.1//EN" "http://www.w3.org/Graphics/SVG/1.1/DTD/svg11.dtd"><svg t="1683559400816" class="icon" viewBox="0 0 1024 1024" version="1.1" xmlns="http://www.w3.org/2000/svg" p-id="2360" xmlns:xlink="http://www.w3.org/1999/xlink" width="18" height="18"><path d="M894.54592 869.87776c0.11264 5.20192-4.03456 9.5232-9.23648 9.61536-0.17408 0-0.62464 0.02048-1.32096 0.02048-9.1136 0-60.54912-1.30048-89.42592-29.58336-4.4032-4.32128-8.04864-9.00096-10.97728-14.08-27.67872 40.0384-101.888 43.47904-105.73824 43.64288-0.03072 0-0.06144 0-0.09216 0s-0.0512 0-0.08192 0c-0.17408 0-0.62464 0.02048-1.32096 0.02048-9.1136 0-60.54912-1.30048-89.42592-29.58336-4.4032-4.32128-8.05888-9.00096-10.97728-14.08-21.98528 31.7952-73.29792 40.51968-95.40608 42.82368-1.11616 0.50176-2.34496 0.79872-3.64544 0.8192-0.18432 0-0.63488 0.02048-1.3312 0.02048-0.91136 0-2.3552-0.04096-4.05504-0.08192-0.62464 0.02048-1.0752 0.06144-1.29024 0.06144-0.8704 0.06144-1.69984-0.06144-2.5088-0.21504-17.84832-0.96256-57.4976-5.77536-81.57184-29.3376-4.39296-4.32128-8.04864-9.00096-10.96704-14.08-21.76 31.47776-72.27392 40.33536-94.75072 42.76224-1.14688 0.54272-2.41664 0.86016-3.76832 0.88064-0.17408 0-0.63488 0.02048-1.32096 0.02048-0.98304 0-2.53952-0.04096-4.42368-0.1024-0.73728 0.04096-1.24928 0.08192-1.4848 0.08192-0.9216 0.06144-1.80224-0.06144-2.64192-0.256-18.16576-1.04448-57.1392-6.0416-80.896-29.29664-4.39296-4.32128-8.04864-9.00096-10.96704-14.08-27.67872 40.0384-101.888 43.47904-105.73824 43.64288-5.24288 0.33792-9.59488-3.86048-9.79968-9.0624-0.2048-5.20192 3.85024-9.58464 9.0624-9.79968 0.9728-0.04096 97.90464-4.59776 97.90464-58.73664 0-5.20192 4.21888-9.44128 9.44128-9.44128 5.21216 0 9.43104 4.23936 9.43104 9.44128 0 14.10048 4.54656 25.3952 13.88544 34.53952 20.51072 20.08064 57.57952 23.5008 71.56736 24.08448 13.76256-0.96256 95.91808-8.7552 95.91808-58.624 0-5.20192 4.21888-9.44128 9.43104-9.44128 5.2224 0 9.44128 4.23936 9.44128 9.44128 0 14.10048 4.54656 25.3952 13.88544 34.53952 20.65408 20.224 58.13248 23.56224 71.89504 24.10496 13.056-0.90112 96.14336-8.4992 96.14336-58.64448 0-5.20192 4.22912-9.44128 9.44128-9.44128s9.44128 4.23936 9.44128 9.44128c0 14.10048 4.53632 25.3952 13.88544 34.53952 25.344 24.82176 76.032 24.19712 77.08672 24.17664 2.88768-0.12288 97.78176-5.12 97.78176-58.71616 0-5.20192 4.22912-9.44128 9.44128-9.44128s9.44128 4.23936 9.44128 9.44128c0 14.10048 4.53632 25.3952 13.88544 34.53952 25.47712 24.96512 76.61568 24.17664 77.14816 24.17664C890.28608 860.47744 894.44352 864.65536 894.54592 869.87776zM964.63872 782.81728c0.11264 5.20192-4.03456 9.5232-9.23648 9.63584-0.17408 0-0.62464 0-1.32096 0-9.1136 0-60.54912-1.30048-89.42592-29.58336-4.4032-4.3008-8.04864-9.00096-10.97728-14.08-27.67872 40.0384-101.888 43.49952-105.73824 43.64288l-0.09216 0c-0.03072 0-0.0512 0.02048-0.08192 0.02048-0.17408 0-0.62464 0-1.32096 0-5.45792 0-26.13248-0.54272-48.0256-7.00416 0.07168-0.16384 0.12288-0.31744 0.19456-0.48128-15.7696-3.00032-34.26304-9.04192-46.68416-21.1968-9.34912-9.1648-13.88544-20.45952-13.88544-34.53952 0-5.2224-4.22912-9.44128-9.44128-9.44128s-9.44128 4.21888-9.44128 9.44128c0 50.13504-83.07712 57.74336-96.14336 58.624-13.76256-0.54272-51.24096-3.86048-71.89504-24.08448-9.33888-9.1648-13.88544-20.45952-13.88544-34.53952 0-5.2224-4.21888-9.44128-9.44128-9.44128-5.21216 0-9.43104 4.21888-9.43104 9.44128 0 33.88416-37.85728 48.26112-66.48832 54.36416 0.01024 0 0.01024 0 0.01024 0-0.01024 0-0.02048 0-0.02048 0-0.93184 0.2048-1.88416 0.41984-2.78528 0.60416-0.38912-0.27648-0.72704-0.64512-1.11616-0.9216-19.18976-1.42336-55.1424-7.00416-77.64992-29.04064-4.39296-4.32128-8.04864-9.00096-10.96704-14.08-27.68896 40.0384-101.89824 43.47904-105.74848 43.64288-5.24288 0.33792-9.58464-3.86048-9.78944-9.0624s3.84-9.58464 9.05216-9.79968c0.98304-0.04096 97.90464-4.59776 97.90464-58.73664 0-5.20192 4.22912-9.44128 9.44128-9.44128 5.2224 0 9.44128 4.23936 9.44128 9.44128 0 14.10048 4.53632 25.3952 13.88544 34.53952 11.10016 10.88512 26.95168 16.76288 41.43104 20.03968-16.00512-20.31616-25.72288-45.80352-25.72288-73.6768l0-45.7216c0-61.39904-4.02432-73.25696 48.384-74.63936l93.91104-322.53952c-0.50176-3.79904-0.84992-7.68-0.84992-11.6224 0-48.66048 39.44448-88.10496 88.09472-88.10496 48.22016 0 87.33696 38.7584 88.03328 86.82496l97.72032 335.59552c47.86176 1.93536 43.74528 14.77632 43.74528 74.47552L758.28224 687.104c0 33.04448-13.52704 62.80192-35.1744 84.45952 13.44512 2.05824 23.7568 2.01728 24.22784 2.01728 2.88768-0.14336 97.78176-5.14048 97.78176-58.71616 0-5.2224 4.22912-9.44128 9.44128-9.44128s9.44128 4.21888 9.44128 9.44128c0 14.08 4.53632 25.38496 13.88544 34.53952 25.47712 24.96512 76.61568 24.17664 77.14816 24.17664C960.37888 773.43744 964.52608 777.60512 964.63872 782.81728zM686.30528 566.5792l-83.42528-286.53568c-15.65696 24.4224-42.96704 40.64256-74.12736 40.64256-29.1328 0-54.8864-14.22336-70.93248-36.02432L375.73632 566.5792 686.30528 566.5792z" p-id="2361" fill="#ffffff"></path></svg>