<svg xmlns="http://www.w3.org/2000/svg" pointer-events="none" class="leaflet-zoom-animated" width="715" height="736" viewBox="131 -70 715 736" style="transform: translate3d(131px, -70px, 0px);"><g><path class="leaflet-interactive" stroke="black" stroke-opacity="1" stroke-width="2" stroke-linecap="round" stroke-linejoin="round" fill="#fff" fill-opacity="0.2" fill-rule="evenodd" d="M406 322L398 333L398 335L402 337L398 341L402 345L402 351L395 357L392 356L391 358L390 356L386 364L387 369L384 372L382 368L379 368L375 373L374 379L369 381L364 389L361 391L360 396L353 400L346 400L341 408L343 410L341 413L342 414L354 415L351 419L351 422L352 426L356 430L356 439L360 442L364 442L361 451L357 453L354 457L358 462L366 466L369 465L371 468L371 472L378 472L383 470L383 464L395 444L399 440L411 438L421 447L426 459L429 461L429 464L427 463L427 468L436 464L447 468L448 472L455 481L455 483L457 484L456 491L459 494L459 498L467 500L468 514L472 518L472 525L483 527L499 522L503 518L510 517L522 520L541 530L542 528L546 529L545 530L550 534L551 533L555 535L555 529L557 524L555 518L558 520L559 517L563 517L558 512L558 505L555 502L555 498L551 496L547 487L550 478L549 476L551 474L551 469L556 467L557 457L563 451L563 447L565 444L569 442L570 439L571 423L568 418L570 404L567 396L569 394L569 390L574 390L577 392L579 386L582 385L580 369L578 369L578 367L580 367L578 365L577 360L602 352L619 342L635 339L639 336L635 334L634 330L630 326L628 329L626 329L626 321L621 313L622 308L626 310L627 308L635 306L643 298L643 289L645 288L648 289L650 292L657 290L662 295L664 291L661 287L667 284L668 286L669 283L671 283L671 285L672 281L675 280L673 274L675 270L677 272L681 270L683 271L683 273L685 273L689 271L689 268L696 264L695 260L690 259L689 255L683 254L682 252L684 249L682 248L678 250L674 247L671 240L674 237L670 236L670 234L673 232L672 229L670 231L667 229L664 232L664 228L657 229L654 223L651 226L648 225L641 228L640 230L637 230L637 232L640 232L643 237L639 244L634 244L634 242L631 243L627 240L624 236L626 234L625 229L622 231L621 230L623 228L621 228L618 231L615 239L615 231L614 232L613 229L611 229L607 233L598 235L598 241L600 246L597 245L597 242L593 243L591 246L587 248L584 245L583 247L576 249L573 239L566 237L559 228L558 230L553 224L549 223L546 217L550 212L549 211L555 199L553 196L555 193L553 187L549 183L544 183L539 176L537 177L535 172L539 172L539 170L534 169L533 166L529 166L526 164L526 162L522 158L521 152L524 149L530 135L522 133L512 134L511 132L509 132L509 130L503 132L497 126L494 125L491 119L480 125L479 130L470 137L468 141L469 146L464 147L465 157L472 165L472 167L478 167L481 173L475 184L470 190L464 194L464 202L467 205L467 208L463 211L463 213L460 214L461 215L458 219L458 221L461 223L460 225L463 234L458 243L458 262L460 265L461 277L464 282L462 286L464 299L460 300L456 297L448 297L441 293L421 293L417 291L412 294L402 294L398 298L393 298L393 300L396 301L394 305L394 308L396 310L393 311L392 309L390 309L390 314L393 315L396 313L396 318L401 318L403 321zM659 221L661 221L660 216L656 218L658 221zM667 229L671 229L671 222L669 219L667 221L669 226L667 229z" id="武汉市" data-spm-anchor-id="a2crr.b71357980.area-selector.i4.45df26c0XYSesS" style="&#10;    stroke: white;&#10;"/></g></svg>