<?xml version="1.0" standalone="no"?><!DOCTYPE svg PUBLIC "-//W3C//DTD SVG 1.1//EN" "http://www.w3.org/Graphics/SVG/1.1/DTD/svg11.dtd"><svg t="1628928314734" class="icon" viewBox="0 0 1024 1024" version="1.1" xmlns="http://www.w3.org/2000/svg" p-id="36224" xmlns:xlink="http://www.w3.org/1999/xlink" width="200" height="200"><defs><style type="text/css"></style></defs><path d="M175.787 919.893V604.16c0-189.44 153.6-343.04 343.04-343.04s343.04 153.6 343.04 343.04v315.733h117.76c23.893 0 44.373 20.48 44.373 44.373s-20.48 44.373-44.373 44.373H46.08c-23.893 0-44.373-20.48-44.373-44.373s20.48-44.373 44.373-44.373h129.707z m368.64-520.533l-168.96 278.187h134.827L476.161 885.76l168.96-278.187H510.294l34.133-208.213zM802.133 93.867c15.36 8.533 20.48 29.013 11.947 46.08L752.64 245.76l-58.027-32.427 61.44-105.813c10.24-17.067 30.72-22.187 46.08-13.653zM518.827 15.36c20.48 0 35.84 15.36 35.84 34.133V168.96h-71.68V49.493c0-18.773 15.36-34.133 35.84-34.133zM235.52 93.867c15.36-8.533 35.84-3.413 44.373 11.947l61.44 105.813-58.027 32.427-61.44-105.813c-8.533-15.36-3.413-34.133 13.653-44.373zM27.307 302.08c8.533-15.36 29.013-22.187 44.373-11.947l105.813 61.44-32.427 58.027-105.813-61.44c-15.36-8.533-20.48-29.013-11.947-46.08z m983.04 0c8.533 15.36 3.413 35.84-11.947 46.08L892.587 409.6l-32.427-58.027 105.813-61.44c15.36-8.533 35.84-3.413 44.373 11.947z" fill="#d81e06" p-id="36225"></path></svg>