<?xml version="1.0" standalone="no"?><!DOCTYPE svg PUBLIC "-//W3C//DTD SVG 1.1//EN" "http://www.w3.org/Graphics/SVG/1.1/DTD/svg11.dtd"><svg t="1683451208032" class="icon" viewBox="0 0 1024 1024" version="1.1" xmlns="http://www.w3.org/2000/svg" p-id="12902" xmlns:xlink="http://www.w3.org/1999/xlink" width="18" height="18"><path d="M625.448421 208.572632a26.947368 26.947368 0 0 0 26.947368-26.947369V134.736842a26.947368 26.947368 0 0 0-53.894736 0v46.888421a26.947368 26.947368 0 0 0 26.947368 26.947369zM429.271579 274.054737a26.947368 26.947368 0 0 0 37.995789-37.99579l-33.145263-33.414736a26.947368 26.947368 0 1 0-37.995789 37.995789zM821.625263 590.147368a26.947368 26.947368 0 0 0-37.995789 37.99579l33.145263 33.145263a26.947368 26.947368 0 0 0 37.995789-37.995789zM922.947368 404.210526h-46.888421a26.947368 26.947368 0 1 0 0 53.894737h46.888421a26.947368 26.947368 0 0 0 0-53.894737zM802.762105 281.869474a26.947368 26.947368 0 0 0 19.132632-7.814737l33.145263-33.145263a26.947368 26.947368 0 1 0-37.995789-37.99579l-33.414737 32.87579a26.947368 26.947368 0 0 0 19.132631 46.08z" fill="#ffffff" p-id="12903"></path><path d="M738.627368 580.176842a186.206316 186.206316 0 0 0-113.178947-334.416842 188.631579 188.631579 0 0 0-157.103158 86.231579A198.063158 198.063158 0 0 0 196.715789 471.578947a165.995789 165.995789 0 0 0 39.073685 326.332632h373.76A149.018947 149.018947 0 0 0 754.526316 648.892632V646.736842v-4.311579-12.665263a143.090526 143.090526 0 0 0-15.898948-49.583158z m-113.178947-280.522105a132.581053 132.581053 0 0 1 80.842105 237.675789 144.168421 144.168421 0 0 0-50.391579-29.372631l-10.778947-3.233684-9.701053-2.425264a134.736842 134.736842 0 0 0-26.947368-2.694736 143.629474 143.629474 0 0 0-19.402105 1.347368 198.332632 198.332632 0 0 0-74.105263-141.743158 134.736842 134.736842 0 0 1 110.48421-59.823158z m-16.168421 444.631579H235.789474a111.831579 111.831579 0 0 1-12.39579-222.585263l21.288421-2.425264 2.425263-21.288421a144.707368 144.707368 0 0 1 288.336843 16.437895v6.467369a144.707368 144.707368 0 0 0-43.385264 39.612631 26.947368 26.947368 0 0 0 43.385264 32.336842 91.082105 91.082105 0 0 1 31.797894-26.947368h2.425263c2.425263 0 5.12-1.886316 7.545264-2.964211a93.776842 93.776842 0 0 1 12.395789-4.311579 90.273684 90.273684 0 0 1 19.941053-2.425263 95.393684 95.393684 0 0 1 0 187.823158z" fill="#ffffff" p-id="12904"></path></svg>