<?xml version="1.0" standalone="no"?><!DOCTYPE svg PUBLIC "-//W3C//DTD SVG 1.1//EN" "http://www.w3.org/Graphics/SVG/1.1/DTD/svg11.dtd"><svg t="1683448932936" class="icon" viewBox="0 0 1024 1024" version="1.1" xmlns="http://www.w3.org/2000/svg" p-id="5686" xmlns:xlink="http://www.w3.org/1999/xlink" width="18" height="18"><path d="M296.056471 120.470588m30.117647 0l0 0q30.117647 0 30.117647 30.117647l0 271.058824q0 30.117647-30.117647 30.117647l0 0q-30.117647 0-30.117647-30.117647l0-271.058824q0-30.117647 30.117647-30.117647Z" fill="#ffffff" p-id="5687"></path><path d="M454.569855 177.21147m15.058824 26.082648l0 0q15.058824 26.082647-11.023824 41.141471l-234.743827 135.529411q-26.082647 15.058824-41.141471-11.023824l0 0q-15.058824-26.082647 11.023824-41.141471l234.743827-135.529411q26.082647-15.058824 41.141471 11.023824Z" fill="#ffffff" p-id="5688"></path><path d="M778.867494 216.96929m10.648196 10.648196l0 0q10.648196 10.648196 0 21.296393l-532.409811 532.409811q-10.648196 10.648196-21.296393 0l0 0q-10.648196-10.648196 0-21.296392l532.409812-532.409812q10.648196-10.648196 21.296392 0Z" fill="#ffffff" p-id="5689"></path><path d="M167.660733 229.376765m15.058824-26.082647l0 0q15.058824-26.082647 41.141471-11.023824l234.743827 135.529411q26.082647 15.058824 11.023824 41.141471l0 0q-15.058824 26.082647-41.141471 11.023824l-234.743827-135.529411q-26.082647-15.058824-11.023824-41.141471Z" fill="#ffffff" p-id="5690"></path><path d="M677.647059 846.305882c58.217412 0 105.411765-43.580235 105.411765-97.310117 0-53.76-91.226353-203.866353-105.411765-203.866353-14.185412 0-105.411765 150.106353-105.411765 203.866353 0 53.729882 47.194353 97.310118 105.411765 97.310117z" fill="#ffffff" p-id="5691"></path></svg>