<?xml version="1.0" standalone="no"?><!DOCTYPE svg PUBLIC "-//W3C//DTD SVG 1.1//EN" "http://www.w3.org/Graphics/SVG/1.1/DTD/svg11.dtd"><svg t="1683461537316" class="icon" viewBox="0 0 1024 1024" version="1.1" xmlns="http://www.w3.org/2000/svg" p-id="17440" xmlns:xlink="http://www.w3.org/1999/xlink" width="18" height="18"><path d="M870.4 853.3h-17.1V358.4c0-5.4-2.5-10.4-6.8-13.6-4.3-3.2-9.8-4.3-15-2.8l-12.4 3.5V221.9c0-9.4-7.6-17.1-17.1-17.1-9.4 0-17.1 7.6-17.1 17.1v47.5L648.5 242v-20.2c0-6.5-3.7-12.4-9.4-15.3l-136.5-68.3c-4.8-2.4-10.5-2.4-15.3 0l-136.5 68.3c-5.8 2.9-9.4 8.8-9.4 15.3v95.3l-29.1 29.1c-3.2 3.2-5 7.5-5 12.1v51.2H239v-85.3c0-9.4-7.6-17.1-17.1-17.1s-17.1 7.6-17.1 17.1v85.3h-51.2c-9.4 0-17.1 7.6-17.1 17.1v375.5c0 9.4 7.6 17.1 17.1 17.1 9.4 0 17.1-7.6 17.1-17.1V443.7h136.5v64.8L246.5 549c-4.7 3.2-7.6 8.5-7.6 14.2v290.1h-85.3c-9.4 0-17.1 7.6-17.1 17.1 0 9.4 7.6 17.1 17.1 17.1h716.8c9.4 0 17.1-7.6 17.1-17.1 0-9.4-7.7-17.1-17.1-17.1z m-85.3-549.2v51.2l-136.5 39V276.8l136.5 27.3z m-512 549.2v-281l85.3-56.9 85.3 56.9v281H273.1z m204.8 0V563.2c0-5.7-2.9-11-7.6-14.2l-102.4-68.3c-5.7-3.8-13.2-3.8-18.9 0l-7.6 5.1V365.5l29.1-29.1c3.2-3.2 5-7.5 5-12.1v-91.8L495 172.8l119.5 59.7v177.4c-21.5 16.1-34.1 41.4-34.1 68.3v375.2H477.9z m136.5 0V478.2c0.1-22.8 15.2-42.9 37.1-49.2l167.7-48v472.3H614.4zM443.7 307.2h34.1v68.3h-34.1v-68.3z m0 102.4h34.1v68.3h-34.1v-68.3zM341.3 614.4h34.1v68.3h-34.1v-68.3z m375.5-170.7h34.1V512h-34.1v-68.3z m0 102.4h34.1v68.3h-34.1v-68.3z m0 102.4h34.1v68.3h-34.1v-68.3z m0 102.4h34.1v68.3h-34.1v-68.3z m0 0" fill="#ffffff" p-id="17441"></path></svg>