<?xml version="1.0" standalone="no"?><!DOCTYPE svg PUBLIC "-//W3C//DTD SVG 1.1//EN" "http://www.w3.org/Graphics/SVG/1.1/DTD/svg11.dtd"><svg t="1683448985598" class="icon" viewBox="0 0 1024 1024" version="1.1" xmlns="http://www.w3.org/2000/svg" p-id="6751" xmlns:xlink="http://www.w3.org/1999/xlink" width="18" height="18"><path d="M484.910053 921.058201l-2.708995-51.470899c17.156966-0.902998 36.119929-4.514991 55.082893-10.835979 9.029982-2.708995 17.156966-7.223986 25.28395-14.447972l33.410935 38.828924c-12.641975 10.835979-27.089947 18.962963-42.440917 24.380953-24.380952 8.126984-46.955908 12.641975-68.627866 13.544973z m-69.530864-8.126984c-37.022928-10.835979-68.627866-33.410935-94.814815-65.918871l39.731922-31.604939c19.865961 24.380952 43.343915 40.634921 70.433863 48.761905l-15.35097 48.761905z m223.040564-87.590829l-46.955908-19.865961c6.320988-15.35097 9.932981-31.604938 9.93298-46.05291v-5.41799c0-5.417989-0.902998-10.835979-0.902998-16.253968 0-8.126984 0-16.253968 0.902998-24.380952l51.4709 3.611993c-0.902998 7.223986-0.902998 13.544974-0.902998 19.865961V758.518519c0 22.574956-4.514991 45.149912-13.544974 66.821869z m23.477954-165.248677l-49.664903-12.641976c6.320988-23.477954 17.156966-55.082892 35.216931-76.75485 7.223986-9.029982 17.156966-16.253968 30.70194-22.574956l22.574956 46.052911c-8.126984 4.514991-12.641975 8.126984-14.447971 10.835978-9.029982 9.932981-18.059965 29.798942-24.380953 55.082893z m92.10582-83.075838l-10.835978-50.567901c19.865961-4.514991 39.731922-7.223986 55.082892-9.029983 8.126984-0.902998 15.35097-1.805996 20.768959-3.611993 5.417989-0.902998 10.835979-2.708995 15.35097-6.320987l28.895944 42.440917c-9.932981 7.223986-21.671958 11.738977-34.313933 13.544973-5.417989 0.902998-13.544974 1.805996-22.574956 3.611993-15.35097 2.708995-34.313933 5.417989-52.373898 9.932981z m151.703704-91.202822l-49.664903-13.544973c2.708995-10.835979 4.514991-22.574956 4.514991-35.216932 0-17.156966-2.708995-35.216931-8.126984-51.470899l48.761905-16.253968c7.223986 20.768959 10.835979 44.246914 10.835979 67.724867-0.902998 17.156966-2.708995 33.410935-6.320988 48.761905z m-79.463845-140.867725c-18.059965-17.156966-42.440917-30.70194-79.463845-42.440917l16.253969-48.761905c44.246914 14.447972 74.948854 31.604938 98.426807 54.179895l-35.216931 37.022927z m-137.255732-58.694885l-32.507936-8.126984-33.410935-9.029983c-12.641975-3.611993-25.283951-8.126984-37.022928-13.544973l21.671958-46.05291c9.029982 4.514991 18.059965 7.223986 27.992945 9.93298l32.507937 8.126985c11.738977 2.708995 22.574956 5.417989 33.410935 9.029982l-12.641976 49.664903z m-159.830688-72.239859c-44.246914-46.05291-54.179894-100.232804-55.082892-102.038801l50.567901-9.029982-25.28395 4.514991 25.28395-4.514991s8.126984 42.440917 41.537919 75.851852l-37.022928 35.216931z" fill="#ffffff" p-id="6752"></path><path d="M299.795414 756.712522l-9.93298-12.641975c-7.223986-9.029982-186.920635-232.070547-186.920635-337.721341 0-109.262787 88.493827-197.756614 197.756614-197.756613S497.552028 297.989418 497.552028 406.349206c0 105.650794-179.696649 327.78836-186.920635 337.721341l-10.835979 12.641975zM456.917108 406.349206c0-86.687831-70.433862-156.218695-156.218695-156.218695S143.57672 320.564374 143.57672 406.349206c0 60.500882 88.493827 195.950617 156.218694 284.444445 67.724868-88.493827 157.121693-223.943563 157.121694-284.444445z" fill="#ffffff" p-id="6753"></path><path d="M299.795414 409.961199m-76.75485 0a76.75485 76.75485 0 1 0 153.509701 0 76.75485 76.75485 0 1 0-153.509701 0Z" fill="#ffffff" p-id="6754"></path></svg>